<?xml version="1.0" standalone="no"?>
<!DOCTYPE svg PUBLIC "-//W3C//DTD SVG 1.1//EN" "http://www.w3.org/Graphics/SVG/1.1/DTD/svg11.dtd" >
<svg xmlns="http://www.w3.org/2000/svg">
<metadata>Generated by IcoMoon</metadata>
<defs>
<font id="cardholder-icons" horiz-adv-x="512">
<font-face units-per-em="512" ascent="480" descent="-32" />
<missing-glyph horiz-adv-x="512" />
<glyph unicode="&#x20;" d="" horiz-adv-x="256" />
<glyph unicode="&#xe001;" d="M204.8 288.512q-16.384 54.784-24.576 93.696-2.56 25.088-2.56 41.984 0 55.808 27.136 55.808 25.6 0 25.6-53.248 0-80.384-25.6-138.24zM191.488 275.2q-54.784-16.384-93.696-24.576-25.088-2.56-41.984-2.56-55.808 0-55.808 27.136 0 25.6 53.248 25.6 80.384 0 138.24-25.6zM204.8 261.888q16.384-54.784 24.576-93.696 2.56-25.088 2.56-41.984 0-55.808-27.136-55.808-25.6 0-25.6 53.248 0 80.384 25.6 138.24zM218.112 275.2q54.784 16.384 93.696 24.576 25.088 2.56 41.984 2.56 55.808 0 55.808-27.136 0-25.6-53.248-25.6-80.384 0-138.24 25.6zM214.528 284.928q14.848 42.496 48.64 83.456 47.616 58.368 71.68 58.368 8.192 0 14.592-6.4t6.4-14.592q0-20.992-55.808-68.608-41.472-35.328-85.504-52.224zM195.072 284.928q-42.496 14.848-83.456 48.64-58.368 47.616-58.368 71.68 0 8.192 6.4 14.592t14.592 6.4q20.992 0 68.608-55.808 35.328-41.472 52.224-85.504zM195.072 265.472q-14.848-42.496-48.64-83.456-47.616-58.368-71.68-58.368-8.192 0-14.592 6.4t-6.4 14.592q0 20.992 55.808 68.608 41.472 35.328 85.504 52.224zM214.528 265.472q42.496-14.848 83.456-48.64 58.368-47.616 58.368-71.68 0-8.192-6.4-14.592t-14.592-6.4q-20.992 0-68.608 55.808-35.328 41.472-52.224 85.504z" horiz-adv-x="430" />
<glyph unicode="&#xe002;" d="M430.592 304.384q0-34.816-23.296-59.392t-58.112-27.136q25.6-25.088 25.6-60.928 0-36.352-25.088-61.44t-61.44-25.088q-37.376 0-62.976 27.648-10.752 11.776-16.896 26.112-7.68-15.872-19.968-27.648-24.576-23.040-58.88-23.040-36.352 0-61.44 25.088t-25.088 61.44 26.624 61.952q-30.72 6.144-50.176 29.952t-19.456 55.040q0 45.056 36.864 70.656 22.528 15.36 49.664 15.36 19.968 0 38.912-9.216v1.024q-0.512 5.632-0.512 10.752 0 32.256 22.528 56.576t54.784 27.392q35.84 3.584 63.488-18.688t31.232-58.112q1.536-13.824-1.024-26.624 21.504 14.848 48.128 14.848 35.84 0 61.184-25.344t25.344-61.184zM206.848 193.28q31.232 0 53.504 22.272t22.272 53.504-22.272 53.504-53.504 22.272-53.504-22.272-22.272-53.504 22.272-53.504 53.504-22.272z" horiz-adv-x="452" />
<glyph unicode="&#xe003;" d="M204.8 290.56q-19.456 1.024-28.16 27.648-7.168 20.48-5.632 43.008t10.752 41.984q11.776 25.088 31.232 24.064 18.944-1.024 28.672-27.648 6.656-20.48 5.632-43.008-1.024-22.016-10.752-41.984-12.288-25.088-31.744-24.064zM175.104 273.664q0-27.648-44.032-27.648-43.52 0-73.216 27.648-15.36 14.336-15.36 28.672t15.36 22.016q12.288 6.144 28.672 6.144 43.008 0 73.216-28.16 15.36-14.336 15.36-28.672zM172.544 238.336q25.088 0 25.088-29.696 0-26.112-20.48-53.248-27.136-36.352-56.832-36.352-25.6 0-25.6 29.184 0 25.088 20.992 53.248 27.648 36.864 56.832 36.864zM212.48 209.664q0 30.208 25.6 30.208 28.672 0 56.32-37.888 19.968-27.648 19.968-52.736 0-29.696-25.088-29.696-29.696 0-56.832 37.376-19.968 27.648-19.968 52.736zM279.552 245.504q-17.408 0-30.208 5.632-16.896 7.68-16.896 23.040 0 18.432 24.576 34.816 28.672 18.944 62.464 18.944 17.408 0 30.208-6.144 16.896-7.68 16.896-23.040 0-16.896-20.48-32.256-16.384-11.264-36.352-16.896-15.36-4.096-30.208-4.096z" horiz-adv-x="416" />
<glyph unicode="&#xe004;" d="M186.88 327.424q-20.48 0-34.048 15.104t-13.568 35.584 13.568 35.584 34.048 15.104 34.048-15.104 13.568-35.584-13.568-35.584-34.048-15.104zM122.368 279.296q-11.264-33.28-44.544-33.28-8.192 0-16.896 3.584-31.232 12.8-31.232 47.104 0 9.216 3.072 17.92 11.776 32.768 45.056 32.768 8.704 0 16.384-3.072 31.232-12.288 31.232-47.616 0-8.192-3.072-17.408zM167.424 168.192q0-20.48-13.568-35.584t-34.048-15.104-34.048 14.848-13.568 35.84q0 20.48 13.824 35.584t33.792 15.104q20.48 0 34.048-14.848t13.568-35.84zM227.84 206.080q9.728 4.608 19.456 4.608 31.232 0 43.52-30.72 4.096-10.24 4.096-19.968 0-33.28-28.672-46.592-8.704-4.096-18.944-4.096-31.232 0-44.032 30.208-4.096 9.728-4.096 20.48 0 32.768 28.672 46.080zM290.304 239.872q-20.48 0-34.304 15.104t-13.824 35.584 13.824 35.584 34.304 15.104q19.968 0 33.792-15.104t13.824-35.584-13.568-35.584-34.048-15.104zM185.344 227.072q-12.288 0-20.736 9.472t-8.448 21.76 8.448 21.504 20.736 9.216 20.736-9.216 8.448-21.504q0-12.8-8.192-22.016t-20.992-9.216z" horiz-adv-x="369" />
<glyph unicode="&#xe005;" d="M260.096 315.136q7.68 0 13.056-5.376t5.376-13.056q0-13.824-12.8-17.92l-67.072-21.504 49.664-86.016h-56.832l11.776-77.824q2.56-18.432-15.36-20.992-9.728-1.536-19.2 4.096t-10.496 14.848l-10.24 81.408h-10.752l-10.752-84.992q-2.048-17.408-27.136-17.408-8.192 0-12.544 6.4t-3.328 14.592l9.728 79.872h-57.344l47.616 82.432-71.168 22.528q-13.312 4.096-13.312 17.92 0 18.432 18.944 18.432 2.56 0 5.632-1.024l78.848-25.088 17.92 28.672q-23.552 6.656-38.4 26.112t-14.848 43.52q0 30.208 20.992 51.456t51.2 21.248 51.456-21.248 21.248-51.456q0-23.552-13.824-42.496t-36.352-26.112l17.92-25.6 74.752 23.552q3.072 1.024 5.632 1.024z" horiz-adv-x="292" />
<glyph unicode="&#xe006;" d="M263.168 313.088q8.192 0 13.568-5.376t5.376-13.568q0-13.312-12.8-17.92l-71.168-25.088v-58.88l26.624-94.72q0.512-2.048 0.512-5.12 0-22.528-19.456-22.528-19.968 0-23.552 13.312l-26.624 95.232h-26.624l-26.624-95.232q-3.584-13.312-24.064-13.312-18.944 0-18.944 24.576 0 3.584 1.024 6.144l28.16 98.816v54.272l-76.288 26.624q-12.8 4.608-12.8 17.92 0 7.68 5.376 13.056t13.056 5.376q3.072 0 6.144-0.512l77.824-25.088q5.12 8.704 17.408 16.384t22.528 8.704q-28.16 1.536-47.36 21.76t-19.2 48.384q0 29.184 20.736 49.92t49.92 20.736 49.664-20.736 20.48-49.92q0-27.648-18.432-47.872t-46.080-22.272q12.8-1.024 31.232-27.648l74.752 23.552q3.072 1.024 5.632 1.024z" horiz-adv-x="296" />
<glyph unicode="&#xe007;" d="M397.824 316.16q41.472-47.104 41.472-96.768 0-68.608-77.824-110.592-64.512-35.328-139.264-35.328-72.192 0-138.24 33.792-80.384 40.96-80.384 106.496 0 8.192 2.56 18.944 10.24 43.52 32.256 75.776-30.208 23.552-30.208 62.464 0 32.768 22.528 56.064t55.296 23.296q28.16 0 49.408-18.176t26.368-45.824q28.672 6.144 60.416 6.144 22.016 0 43.52-4.096 6.144 26.624 27.136 43.52t48.128 16.896q32.256 0 54.784-23.040t22.528-55.808q0-30.72-20.48-53.76zM56.832 376.576q0-11.264 7.68-18.944t18.944-7.68 18.688 7.68 7.424 18.944q0 10.752-7.68 18.432t-18.432 7.68q-11.264 0-18.944-7.424t-7.68-18.688zM223.744 147.712q62.464 0 99.84 30.72 19.456 16.384 26.112 32.768l-23.040 9.216q-5.12-12.288-20.992-24.576-30.72-23.552-81.92-23.552-52.736 0-87.552 22.528-17.92 11.776-25.6 24.064l-1.024 2.048-19.968-14.336q8.704-15.36 30.72-30.208 41.984-28.672 103.424-28.672zM340.992 345.344q11.264 0 18.944 7.68t7.68 18.944-7.68 18.688-18.944 7.424q-10.752 0-18.432-7.68t-7.68-18.432q0-11.264 7.424-18.944t18.688-7.68z" horiz-adv-x="497" />
<glyph unicode="&#xe008;" d="M319.488 358.144q19.456-14.336 19.456-50.176 0-52.224-39.936-129.024-36.864-71.168-58.88-77.312-9.216-2.56-16.896-2.56t-21.504 4.096-20.992 4.096q-5.632 0-16.896-3.328t-17.408-3.328q-12.8 0-31.232 6.656-32.256 11.776-60.928 87.552-25.6 66.56-25.6 109.056t20.48 59.392 49.152 16.896q20.48 0 65.024-26.112 4.608 40.448 37.376 76.8 18.944 20.992 34.304 29.184l14.848-26.624q-11.264-6.656-26.112-22.528-25.088-27.136-29.184-56.832h7.168q23.040 26.112 54.784 26.112 33.28 0 62.976-22.016z" horiz-adv-x="372" />
<glyph unicode="&#xe009;" d="M321.024 443.648q0-28.672-66.56-43.52-37.376-8.704-88.064-11.264 5.632-13.312 5.632-27.648 0-25.088-17.408-47.616-13.824-17.92-13.824-35.84 0-11.264 5.12-21.504h120.32l-12.288-75.264h-24.064l-10.24-110.592h-53.76q-6.144 13.824-23.552 13.824t-23.552-13.824h-55.808l-10.752 110.592h-27.648l-10.24 75.264h103.424q-3.072 10.752-3.072 21.504 0 27.136 18.944 51.712 11.776 15.36 11.776 31.744 0 8.704-6.144 23.040l2.56 1.536q-141.824 11.264-141.824 49.664 0 5.12 3.072 10.752 15.36 28.16 39.936 28.16 45.568 0 107.52-82.432l1.024 0.512q30.72 41.984 71.168 67.584 31.744 19.968 58.88 19.968 15.872 0 27.648-10.496t11.776-25.856z" horiz-adv-x="337" />
<glyph unicode="&#xe00a;" d="M401.92 289.536q14.336-6.656 35.84-29.696 23.552-25.6 23.552-40.96 0-15.872-15.872-15.872-11.776 0-36.352 13.312-0.512-64-45.568-91.136 74.24-17.92 74.24-34.304 0-2.56-2.048-5.12-10.752-13.824-37.376-13.824-40.96 0-110.080 30.208-26.112-3.072-57.344-3.072-31.744 0-57.856 3.072-68.608-30.208-109.568-30.208-26.624 0-37.376 13.824-2.048 2.56-2.048 5.12 0 16.384 74.752 34.304-46.080 27.648-47.104 90.624-20.992-11.264-33.792-11.264-18.944 0-18.944 17.92 0 16.384 25.088 40.448 20.48 19.968 36.352 26.624 15.36 71.168 50.176 114.688-14.336 1.536-24.064 12.288t-9.728 25.088q0 15.872 11.264 26.88t27.136 11.008q15.36 0 26.624-10.752 7.168-7.168 11.264-27.136 34.304 19.968 77.824 19.968 43.008 0 77.824-19.456v1.536q0 15.872 11.008 26.88t26.88 11.008 27.136-11.008 11.264-26.88q0-14.336-9.728-25.088t-24.064-12.288q37.888-44.544 50.688-116.736zM147.968 335.616q9.728 0 16.64 6.656t6.912 16.384-6.912 16.64-16.64 6.912-16.384-6.912-6.656-16.64 6.656-16.384 16.384-6.656zM266.24 290.56v27.136h-66.56v-27.136h66.56zM309.76 335.616q9.728 0 16.384 6.656t6.656 16.384-6.656 16.64-16.384 6.912-16.64-6.912-6.912-16.64 6.912-16.384 16.64-6.656z" horiz-adv-x="486" />
<glyph unicode="&#xe00b;" d="M205.312 480q55.808 0 115.2-11.776 89.6-17.408 89.6-51.712 0-17.92-29.184-32.768v-289.792q0-9.728-6.912-16.64t-16.64-6.912h-295.424q-9.728 0-16.64 6.912t-6.912 16.64v285.184q-38.4 16.896-38.4 37.376 0 34.304 89.6 51.712 59.392 11.776 115.712 11.776zM99.328 314.624q0-11.264 7.68-19.2t18.944-7.936 19.2 7.936 7.936 19.2-7.936 18.944-19.2 7.68q-10.752 0-18.688-7.936t-7.936-18.688zM211.968 192.256q47.104 2.56 60.928 40.96h-130.56q14.336-25.088 43.52-35.84 12.8-4.608 26.112-5.12zM291.84 287.488q11.264 0 18.944 7.936t7.68 19.2-7.68 18.944-18.944 7.68-18.944-7.68-7.68-18.944 7.68-19.2 18.944-7.936z" horiz-adv-x="431" />
<glyph unicode="&#xe00c;" d="M238.080 360.704q-10.752 8.704-32.768 19.968 0 90.624 12.288 99.328 3.584-0.512 6.656-6.656 7.168-13.824 11.264-51.2 36.864 44.032 48.128 44.544 1.536-1.536 1.536-8.704 0-17.408-11.264-59.904 44.544 18.432 62.464 18.432 4.608 0 5.632-1.024 4.608-11.264-39.936-51.2 15.36 1.536 27.136 1.536 31.232 0 34.816-8.704-1.536-4.096-11.264-8.192-23.552-10.24-84.992-18.432-6.144 10.24-29.696 30.208zM152.064 367.872q-13.824-5.12-39.424-37.376 0-31.232 45.056-64l-16.384-22.016q-36.352 27.136-49.664 57.856-15.36-22.528-30.72-48.128 3.584-25.6 40.448-52.736l-15.872-22.016q-28.672 20.992-41.984 44.032-43.52-82.432-43.52-122.88 0-30.208 29.696-30.208 33.792 0 93.184 43.008 51.2 36.864 97.28 87.040 45.568 48.64 47.104 68.096 3.072 28.672-35.072 64.768t-69.376 36.096q-5.632 0-10.752-1.536z" horiz-adv-x="383" />
<glyph unicode="&#xe00d;" d="M286.208 273.664q-53.248 0-86.016-45.056-28.672-39.936-28.672-95.744 0 55.808-28.672 95.744-32.768 45.056-86.016 45.056 53.248 0 86.016 45.056 28.672 39.936 28.672 95.744 0-55.808 28.672-95.744 32.768-45.056 86.016-45.056z" horiz-adv-x="350" />
<glyph unicode="&#xe00e;" d="M286.208 273.664q-53.248 0-86.016-45.056-28.672-39.936-28.672-95.744 0 55.808-28.672 95.744-32.768 45.056-86.016 45.056 53.248 0 86.016 45.056 28.672 39.936 28.672 95.744 0-55.808 28.672-95.744 32.768-45.056 86.016-45.056z" horiz-adv-x="350" />
<glyph unicode="&#xe00f;" d="M78.336 205.056q34.304-43.008 90.112-45.056 53.76-2.048 93.696 40.96 33.792 36.352 32.256 85.504-1.536 49.664-37.888 83.456-26.624 24.576-62.464 23.552-35.328-1.024-60.416-27.648-17.92-18.944-16.896-44.544 1.024-26.112 19.456-43.52 11.776-11.264 29.696-11.264 15.872 0 27.392 9.216t11.008 24.576q0 11.264-8.704 19.456-6.656 9.728-6.656 15.872 0 9.216 6.144 15.36t15.36 6.144q8.704 0 14.848-6.144 6.144-9.216 10.752-17.408 11.264-19.968 11.776-32.256 1.024-28.672-19.456-50.688-25.6-27.136-62.464-27.136-34.304 0-58.88 23.040-31.744 29.696-33.28 73.216t28.16 75.264q37.376 39.936 90.624 41.472 53.76 1.536 93.696-35.328 48.64-45.568 51.2-113.152 2.56-68.096-43.52-116.736-53.76-56.832-126.976-54.272-75.264 3.072-121.856 61.44-5.12 8.704-5.12 13.312 0 8.704 6.4 15.104t15.104 6.4q10.24 0 16.896-8.192z" horiz-adv-x="394" />
<glyph unicode="&#xe010;" d="M131.072 472.832l27.136 6.656 13.824-55.808-27.136-6.656zM297.472 414.464l12.8-24.576-50.688-27.136-13.312 25.088zM229.376 480l24.576-13.312-27.136-50.688-24.576 13.312zM176.128 322.816q38.4-13.824 61.696-47.36t23.296-74.496q0-54.272-38.144-92.416t-92.416-38.144q-54.784 0-92.672 37.888t-37.888 92.672q0 54.272 38.144 92.416t92.416 38.144q5.632 0 12.288-1.024 19.456 46.080 46.592 58.368l14.336-30.208q-15.36-9.728-27.648-35.84zM221.696 173.312q1.024 2.56 1.024 5.12 0 16.896-16.896 16.896-7.168 0-15.872-11.264-9.216-26.624-37.376-37.376-10.752-4.096-10.752-15.872 0-6.656 4.864-11.52t11.52-4.864q3.584 0 6.144 1.024 28.16 10.752 45.056 34.304 5.632 7.68 12.288 23.552z" horiz-adv-x="326" />
<glyph unicode="&#xe011;" d="M425.472 239.36q-0.512 12.8 16.896 13.824 16.896 0.512 17.408-12.288 0.512-13.824-16.384-14.336-17.408-1.024-17.92 12.8zM410.624 271.616q-2.56 11.264 13.312 14.848 15.36 3.584 17.92-7.68t-12.8-14.848q-15.872-3.584-18.432 7.68zM414.208 205.568q2.048 12.288 18.432 9.728t14.336-14.848-18.432-9.728-14.336 14.848zM407.040 221.44q-6.144-12.8-17.408-13.312-10.24-0.512-16.896 9.216-6.144 8.192-6.656 18.944t5.12 20.48 15.872 10.24 16.896-9.728h0.512q12.288 0 12.8-17.408 0.512-16.896-10.24-18.432zM161.792 296.192q-1.536 7.168 4.864 12.544t13.568 5.376q12.288 0 14.848-9.728 2.048-7.168-4.352-12.544t-14.080-5.376q-12.288 0-14.848 9.728zM147.456 319.744q-7.68 1.536-7.68 8.704 0 8.192 10.752 13.312 6.656 3.072 12.8 1.536 7.168-2.048 7.168-8.704 0-8.192-7.424-12.544t-15.616-2.304zM157.696 260.864q-0.512 12.288 15.872 12.8 16.384 1.024 16.896-11.264t-15.872-12.8q-16.384-1.024-16.896 11.264zM147.456 274.688q-4.608-16.896-18.432-16.896-11.264 0-18.944 11.264-7.168 9.728-7.168 21.504 0 20.48 15.36 24.576 10.24 2.56 18.944-6.144l0.512 0.512q11.264 2.56 15.872-14.848 4.096-16.384-6.144-19.968z" horiz-adv-x="593" />
<glyph unicode="&#xe012;" d="M26.624 228.096q-8.704 0-14.848 6.144t-6.144 14.848 6.144 14.848 14.848 6.144 14.848-6.144 6.144-14.848-6.144-14.848-14.848-6.144zM204.8 248.576l-64.512-22.016-64.512 22.016 64.512 21.504zM255.488 228.096q-8.704 0-14.848 6.144t-6.144 14.848 6.144 14.848 14.848 6.144 14.848-6.144 6.144-14.848-6.144-14.848-14.848-6.144zM433.664 248.576l-64.512-22.016-64.512 22.016 64.512 21.504z" horiz-adv-x="464" />
<glyph unicode="&#xe013;" d="M115.712 222.976q-7.168-5.12-11.776 2.048-3.072 4.608 2.048 11.776 12.8 8.704 36.352 17.408 45.056 16.384 94.72 16.384 40.96 0 82.944-25.088 29.184-17.408 50.176-17.408 36.352 0 52.736 23.552 6.656 9.728 6.656 20.992 0 14.848-11.776 24.576t-26.624 8.192q-14.336-1.536-17.408-15.872-3.584-18.432 13.824-18.944 8.192 0 8.192-8.192 0-5.632-8.192-8.704-16.896 0-25.344 11.008t-5.376 27.904q4.608 27.136 32.768 29.696 16.896 1.536 32-7.168t21.248-24.064q3.584-9.216 3.584-18.944 0-15.872-9.728-30.208-20.992-30.72-66.56-30.72-25.6 0-58.88 19.968-37.888 22.528-74.24 22.528-46.080 0-88.576-15.36-13.312-4.608-32.768-15.36zM44.544 231.168q-8.192 0-13.824 5.632t-5.632 13.824 5.632 13.824 13.824 5.632 13.568-5.632 5.376-13.824-5.376-13.824-13.568-5.632z" horiz-adv-x="484" />
<glyph unicode="&#xe014;" d="M276.992 281.344q-13.824-10.24-35.328-21.504 21.504-11.264 35.328-20.992l-5.632-8.192q-17.92 11.776-40.448 23.552-65.536-32.256-117.248-33.28-38.4-0.512-76.8 16.896-19.968 9.216-30.72 18.432v0q-2.048 1.536-2.048 3.584 0 3.072 2.56 4.096 48.128 35.328 107.008 34.816 52.224-0.512 117.248-33.28 32.256 18.432 40.448 24.064zM113.664 231.168q46.080 0.512 105.472 28.672-58.88 28.16-105.472 28.672-52.224 1.024-95.744-28.672 44.032-29.184 95.744-28.672zM71.168 248.576q-11.264 0-11.264 11.264t11.264 11.264q11.776 0 11.776-11.264t-11.776-11.264zM323.584 255.232l-6.656 7.68q18.432 16.384 46.080 14.848 10.752-0.512 30.72-9.728t30.72-9.216q6.656 0 14.336 2.048l2.048-10.24q-8.704-1.536-16.384-1.536-12.288 0-32 8.96t-29.952 9.472q-13.312 0.512-38.912-12.288z" horiz-adv-x="462" />
<glyph unicode="&#xe015;" d="M279.040 304.384q10.24 0 17.152-6.912t6.912-17.152q0-9.216-6.656-16.128t-15.872-7.424q7.168-7.168 7.168-16.896t-7.168-16.896-16.896-7.168q-15.872 0-22.016 14.848-6.144-13.824-21.504-13.824-10.24 0-17.152 6.912t-6.912 17.152q0 9.728 7.168 16.896-18.944 4.096-18.944 23.552 0 9.728 6.912 16.64t16.64 6.912q5.632 0 10.752-2.56v0.512q-1.024 9.728 5.376 17.408t16.128 8.704 17.408-5.376 8.704-16.128q0.512-3.584-0.512-7.168 6.144 4.096 13.312 4.096zM426.496 236.8q-10.24 0-17.152 7.168t-6.912 17.408q0 9.728 7.168 16.896t16.896 7.168q10.24 0 17.408-6.912t7.168-17.152-7.168-17.408-17.408-7.168zM62.464 236.8q-10.24 0-17.152 7.168t-6.912 17.408q0 9.728 7.168 16.896t16.896 7.168q10.24 0 17.408-6.912t7.168-17.152-7.168-17.408-17.408-7.168z" horiz-adv-x="499" />
<glyph unicode="&#xe016;" d="M185.856 321.28q4.096 3.584 9.728 3.584 18.432 0 35.328-37.376 17.92 37.888 35.328 37.888 5.12 0 8.704-3.072 1.536-2.048 1.536-7.68 0-29.184-46.592-105.984-45.568 76.8-45.568 105.472 0 5.12 1.536 7.168zM401.408 254.72h-29.696v29.696h29.696v-29.696zM58.88 254.72v29.696h29.696v-29.696h-29.696z" horiz-adv-x="458" />
<glyph unicode="&#xe017;" d="M335.872 271.616q0-15.872-15.36-16.896 4.608-4.608 4.608-11.776 0-16.896-16.384-16.896-11.776 0-15.872 10.752-4.608-10.24-15.36-10.24-16.384 0-16.384 16.896 0 7.168 5.12 12.288-13.824 2.56-13.824 16.384 0 16.384 16.896 16.384 2.56 0 7.68-1.536-2.048 16.896 14.848 18.432 16.384 1.536 18.432-14.848 0-2.56-0.512-5.12 5.12 3.584 10.24 3.584 6.656 0 11.264-5.376t4.608-12.032zM181.248 265.472q-34.304-16.896-66.048-18.432-31.232 1.024-66.048 18.432 40.96 17.92 66.048 17.92 29.184 0 66.048-17.92zM540.672 264.448q-34.816-16.896-66.048-18.432-31.744 1.024-66.048 18.432 39.936 17.92 66.048 17.92 29.184 0 66.048-17.92z" horiz-adv-x="588" />
<glyph unicode="&#xe018;" d="M367.616 326.4q11.776-4.096 11.776-56.832 0-52.224-11.776-54.272-12.8-2.56-70.144 32.768-5.12-11.264-12.288-11.264-7.68 0-12.8 12.8-59.392-36.864-72.704-34.304-11.264 2.048-11.264 54.272 0 52.736 11.264 56.832 12.8 4.608 71.168-40.96 5.12 16.384 14.336 16.384 8.704 0 13.312-14.848 56.832 44.032 69.12 39.424zM66.56 255.232q-8.192 0-13.824 5.376t-5.632 13.568 5.632 13.568 13.824 5.376q7.68 0 13.312-5.632t5.632-13.312-5.632-13.312-13.312-5.632zM504.32 255.232q-7.68 0-13.312 5.632t-5.632 13.312 5.632 13.312 13.312 5.632q8.192 0 13.824-5.376t5.632-13.568-5.632-13.568-13.824-5.376z" horiz-adv-x="571" />
<glyph unicode="&#xe019;" d="M81.92 275.2q12.8 2.048 23.552 2.048 31.744 0 31.744-18.944-8.704-38.4-121.856-72.192-5.12 33.792-5.12 59.904 0 60.416 22.016 73.728 5.12 2.048 9.728 2.048 20.992 0 29.696-37.376 19.456 20.48 50.176 36.352l6.144-12.288q-28.16-14.336-46.080-33.28zM224.256 256.768l-3.072 13.312q22.016 5.12 45.568 5.12 16.384 0 29.696-3.584 17.92-4.608 57.344-25.088 35.84-18.944 58.368-22.528 12.288-2.048 23.040-2.048 32.256 0 46.080 17.408 7.168 9.216-0.256 19.712t-19.712 10.496q-3.584 0-7.68-1.024-4.608-4.608-10.752-14.848l-13.312 2.048q3.072 22.528 21.504 26.112 5.12 1.536 10.24 1.536 20.48 0 31.232-16.896 5.12-8.192 5.12-17.92 0-10.24-5.632-17.408-17.408-23.040-56.832-23.040-12.8 0-25.088 2.048-22.528 3.584-59.392 23.040-38.4 19.968-57.856 25.088-11.776 3.072-26.112 3.072-12.288 0-42.496-4.608z" horiz-adv-x="577" />
<glyph unicode="&#xe01a;" d="M409.6 264.448l-28.672-28.672-28.672 28.672 28.672 28.672zM60.416 264.448l-28.672-28.672-28.672 28.672 28.672 28.672zM98.816 253.696v15.36h210.944v-15.36h-210.944zM452.608 253.696v15.36h210.432v-15.36h-210.432z" horiz-adv-x="700" />
<glyph unicode="&#xe01b;" d="M337.92 411.904q68.608 53.248 78.336 53.248 1.024 0 1.536-0.512t1.024-0.512l6.144-24.064q3.584 0 0.512-1.536l-0.512 1.536q-7.168 0-69.12-48.64 12.8-36.864 12.8-74.24 0-103.936-97.792-165.888-59.904-37.888-113.664-51.712-28.672-7.168-80.896-11.264-43.52-3.072-67.584-13.824 33.792 163.84 101.376 241.152 92.16 104.96 177.152 104.96 20.48 0 45.568-8.704-112.128-87.040-247.296-238.080l24.576-17.92q134.144 149.504 245.76 235.52-2.048 4.608-6.144 14.848-3.584 2.56-11.776 5.632z" horiz-adv-x="470" />
<glyph unicode="&#xe01c;" d="M107.008 416q-8.192-2.56-11.776-5.632-4.608-9.728-6.144-14.336 111.616-86.528 245.76-236.032l24.576 18.432q-135.168 150.528-247.296 237.568 24.576 8.704 45.568 8.704 85.504 0 177.152-104.448 67.584-77.312 101.376-241.664-25.6 11.264-68.096 14.336-54.272 4.096-80.384 10.752-53.248 13.824-114.176 52.224-97.28 61.44-97.28 165.376 0 37.888 12.8 74.752-23.040 17.92-33.792 26.112-29.696 21.504-35.328 22.528l-0.512-2.048q-3.584 1.536 0 2.048h0.512l6.144 24.064q0.512 0 1.024 0.512t1.536 0.512q9.216 0 78.336-53.76z" horiz-adv-x="470" />
<glyph unicode="&#xe01d;" d="M157.696 395.52q-20.48 0-55.296-4.608-84.48 53.76-79.36 64.512 1.536 1.024 4.608 1.024 19.456 0 69.632-26.112 1.024 44.032 12.8 49.664 4.608-0.512 11.264-5.12 16.384-10.752 41.984-39.936 41.472 41.472 60.416 43.52 8.192-1.536 8.192-17.92 0-12.288-5.12-31.744 50.176 26.112 71.68 26.112 3.072 0 4.096-0.512t1.024-1.536q0-12.8-84.48-60.928-16.384 3.072-61.44 3.584zM312.32 321.28q-20.48 31.744-58.368 44.544-32.256 10.752-90.624 10.752-136.192 0-159.232-58.368-4.096-10.24-4.096-27.136 0-40.448 20.48-91.648 22.016-55.808 55.808-90.112 39.424-40.448 84.48-38.912 64 2.56 114.176 82.944 44.544 71.168 44.544 135.168 0 21.504-7.168 32.768zM65.536 269.056q-16.384 22.528-16.384 35.328 0 13.824 16.384 14.848 16.384-1.024 16.384-14.848 0-12.8-16.384-35.328zM115.712 179.456q-22.528 21.504-22.528 35.328 0 10.752 13.312 14.336 19.456 2.048 19.456-16.384 0-12.288-10.24-33.28zM162.304 271.104q-16.384 22.528-16.384 35.328 0 13.824 16.384 14.848 16.384-1.024 16.384-14.848 0-12.8-16.384-35.328zM208.384 177.92q-11.776 21.504-11.776 34.304 0 16.896 18.432 15.36 14.336-2.56 14.336-14.336 0-13.312-20.992-35.328zM254.464 269.056q-16.384 22.016-16.384 35.328 0 13.824 16.384 14.848 16.384-1.024 16.384-14.848 0-13.312-16.384-35.328z" horiz-adv-x="336" />
<glyph unicode="&#xe01e;" d="M279.552 142.080q-16.896-34.304-50.688-52.736-31.744-17.408-71.68-17.408-47.104 0-79.872 20.992-35.328 22.528-48.64 65.024-3.584 11.264-3.584 31.744 0 125.952 137.216 291.84 125.952-165.376 125.952-287.232 0-34.304-8.704-52.224zM91.136 233.728q9.216 0 15.872 6.656t6.656 15.872-6.656 15.872-15.872 6.656-15.872-6.656-6.656-15.872 6.656-15.872 15.872-6.656zM155.136 164.608q37.376 2.56 40.448 37.376h-81.408q3.584-35.328 40.96-37.376zM218.624 233.728q9.216 0 15.872 6.656t6.656 15.872q0 9.728-6.656 16.128t-15.872 6.4-15.616-6.656-6.4-15.872 6.4-15.872 15.616-6.656z" horiz-adv-x="342" />
<glyph unicode="&#xe01f;" d="M313.344 206.592q6.656 8.192 16.896 8.192 8.704 0 15.104-6.4t6.4-15.104q0-4.608-4.608-13.312-47.104-58.368-122.368-61.44-73.216-2.56-126.464 54.272-46.080 49.664-44.032 116.736 2.56 67.584 51.712 113.664 39.424 36.864 93.184 34.816t90.624-40.96q30.208-32.256 28.672-75.776-1.024-43.52-33.28-73.216-24.576-23.040-58.88-23.040-37.376 0-62.976 27.136-19.968 21.504-18.944 51.2 0.512 17.92 22.528 49.152 6.144 6.144 14.336 6.144 9.216 0 15.616-6.144t6.4-15.36q0-6.144-7.68-15.104t-8.192-20.224q-0.512-11.776 7.68-20.48 12.288-13.312 31.232-13.312 16.384 0 29.184 11.776 18.944 17.408 19.456 43.008 1.024 26.112-16.384 44.544-24.576 26.112-60.928 27.648-35.84 1.024-62.464-23.552-35.84-33.792-37.888-83.456-1.536-48.64 32.256-85.504 39.936-43.008 93.696-40.96 55.808 2.048 90.112 45.056z" horiz-adv-x="394" />
<glyph unicode="&#xe020;" d="M326.144 234.752q0 67.584-47.872 115.2t-115.456 47.616q-67.072 0-114.944-47.616t-47.872-115.2q0-69.632 50.688-118.272l-17.92-20.992 29.696-25.088 19.456 23.040q37.888-22.016 80.896-22.016 50.176 0 91.648 28.16l17.92-20.992 29.184 25.6-17.92 20.992q42.496 46.592 42.496 109.568zM161.28 206.592l-112.64 60.928 18.432 34.304 94.72-51.2 104.448 54.272 17.92-34.304zM175.104 465.664q1.536 2.048 1.536 4.096 0 10.24-18.432 10.24t-18.432-10.24q0-2.048 1.536-4.096-101.376-9.216-98.304-58.368h228.352q6.144 49.664-96.256 58.368z" horiz-adv-x="343" />
<glyph unicode="&#xe021;" d="M444.416 350.976q14.336 0 24.32-9.984t9.984-24.32v-82.432q0-14.336-9.984-24.32t-24.32-9.984q-4.608 0-9.728 1.536-6.144-1.536-11.776-1.536h-68.608v-129.536h-222.72v100.352h-57.344v-36.352q0-14.336-10.24-24.32t-24.576-9.984-24.32 9.984-9.984 24.32v81.92q0 14.336 9.984 24.576t24.32 10.24q4.608 0 9.728-1.536 6.144 1.536 11.776 1.536h70.656v117.76q0 46.592 32.512 78.848t79.104 32.256 78.848-32.256 32.256-78.848v-87.552h55.296v35.328q0 14.336 10.24 24.32t24.576 9.984zM178.688 328.96q9.216 0 15.616 6.4t6.4 15.616-6.4 15.616-15.616 6.4-15.616-6.4-6.4-15.616 6.4-15.616 15.616-6.4zM279.040 270.592v26.624h-61.952v-26.624h61.952zM298.496 359.68q9.216 0 15.616 6.4t6.4 15.616-6.4 15.616-15.616 6.4-15.616-6.4-6.4-15.616 6.4-15.616 15.616-6.4z" horiz-adv-x="497" />
<glyph unicode="&#xe022;" d="M422.4 224.512q7.68-10.24 27.136-46.592 17.92-34.304 37.888-55.296-48.64 39.936-92.672 56.832-19.968 7.68-34.304 8.704-11.776 1.024-31.232-1.536-23.040-38.912-61.952-61.184t-84.48-22.272q-70.656 0-120.576 49.664t-49.92 120.32q0 71.168 49.664 120.832t120.832 49.664 120.832-49.664 49.664-120.832q0-2.048-0.512-10.752 48.128-10.24 69.632-37.888zM56.32 324.864q0-11.776 8.448-19.968t20.224-8.192 20.224 8.192 8.448 19.968q0 12.288-8.192 20.48t-20.48 8.192-20.48-8.192-8.192-20.48zM168.448 195.84q52.736 3.072 64 45.056h-129.536q7.68-41.472 65.536-45.056zM259.072 282.368q12.288 0 20.48 8.192t8.192 20.48-8.192 20.48-20.48 8.192q-11.776 0-19.968-8.448t-8.192-20.224 8.192-20.224 19.968-8.448z" horiz-adv-x="492" />
<glyph unicode="&#xe023;" d="M147.456 184.576q13.824 0 23.552 10.496t9.728 25.344q0 14.336-9.728 24.832t-23.552 10.496q-13.312 0-23.040-10.496t-9.728-24.832q0-14.848 9.728-25.344t23.040-10.496zM374.272 472.832q-8.704 7.168-19.456 7.168-51.712 0-134.144-142.336-35.84 24.576-78.848 24.576-58.88 0-100.352-42.752t-41.472-103.168 41.472-103.168 100.352-42.752q58.368 0 100.096 42.752t41.728 103.168q0 46.592-26.624 84.48 60.928 46.592 95.232 86.016 53.76 61.44 22.016 86.016zM126.976 127.232q-25.6 9.216-34.304 25.6-5.12 9.728-6.144 31.232t-6.656 31.744q-13.312 24.576-13.312 41.472 0 24.064 24.576 44.032 12.8 10.752 30.208 10.752 26.112 0 51.968-22.784t36.096-58.624q4.608-14.848 4.608-29.696 0-32.768-18.944-55.296t-46.080-22.528q-11.264 0-22.016 4.096zM332.8 443.136q0 7.168 4.864 12.288t11.52 5.12 11.52-5.12 4.864-12.288-4.864-12.544-11.52-5.376-11.52 5.376-4.864 12.544z" horiz-adv-x="405" />
<glyph unicode="&#xe024;" d="M346.112 211.2l-87.040 73.216q-7.68 6.656-19.968 6.656-15.872 0-29.696-11.264l-15.872-12.8-41.472 50.688q3.072 6.144 3.072 13.312 0 9.216-5.632 15.872l-94.72 114.688q-7.168 9.216-19.968 9.216-11.776 0-21.504-8.192-12.288-10.24-12.288-25.088 0-9.216 5.632-16.384l94.72-114.688q10.24-12.288 27.648-8.192l41.472-50.176-16.384-13.312q-16.896-13.824-16.896-33.28 0-7.68 3.584-13.824l56.832-97.792q12.8-22.016 37.376-22.016 15.872 0 29.184 10.752l80.896 66.048q16.384 13.824 16.384 33.792 0 19.456-15.36 32.768zM34.816 422.656q-12.8 0-12.8 12.8 0 13.312 12.8 13.312t12.8-13.312q0-12.8-12.8-12.8zM228.352 105.216q-7.68 0-12.288 7.168l-52.736 82.944q-5.12 8.192 3.072 15.36 8.704 7.168 14.336-1.024l56.832-79.36q3.072-4.608 3.072-10.752 0-14.336-12.288-14.336zM269.312 140.544q-7.68 0-12.8 6.144l-59.904 76.8q-6.144 7.68 2.56 14.848 8.192 7.168 14.848-0.512l64-73.216q4.096-4.608 4.096-10.752 0-13.312-12.8-13.312zM311.296 174.848q-7.68 0-12.8 6.144l-66.56 70.656q-7.168 7.168 1.536 14.336 8.192 7.168 15.872 0l70.656-67.072q5.12-5.12 5.12-11.264 0-12.8-13.824-12.8z" horiz-adv-x="387" />
<glyph unicode="&#xe025;" d="M451.584 300.8q29.696-36.352 29.696-78.848 0-70.656-70.144-114.176-60.416-37.376-135.68-37.376-58.368 0-108.032 23.040 29.696 10.24 63.488 29.696l-17.408 31.744q-64-35.328-103.936-37.376-86.528 15.36-98.816 81.92-1.536 7.68-1.024 14.336-16.896 16.384-16.896 38.4 0 28.672 24.064 28.672 19.456 0 34.304-21.504 12.288 3.584 27.136 5.12 12.8 32.256 43.52 58.368h-2.56q4.608 26.624 15.872 79.872 17.408 73.216 46.592 73.216 31.232 0 70.656-102.912 12.288 1.024 23.040 1.024 20.992 0 40.96-3.072 50.688 109.056 83.968 109.056 27.648 0 41.472-77.824 7.68-43.52 9.728-101.376zM155.136 254.208q11.264 0 18.944 7.424t7.68 18.688-7.68 18.944-18.944 7.68-19.2-7.68-7.936-18.944 7.936-18.688 19.2-7.424zM320 235.264q11.264 0 19.2 7.68t7.936 18.944-7.936 18.688-19.2 7.424-18.944-7.424-7.68-18.688 7.68-18.944 18.944-7.68z" horiz-adv-x="506" />
<glyph unicode="&#xe026;" d="M251.904 434.432q27.136-39.424 27.136-87.552 0-74.752-58.88-121.856l-22.016 27.648-28.16-22.528 19.456-24.064q-15.36-7.168-31.232-10.752-0.512-12.8 5.12-20.48 10.24-14.336 40.96-14.336l-0.512-27.136q-53.76 0.512-68.096 36.352-4.096 10.24-4.608 22.016-8.704 0-7.168 0-77.312 0-124.416 61.952 2.56-75.776 56.832-128.512t130.048-52.736q77.824 0 132.608 54.784t54.784 132.096q0 59.392-33.792 107.264t-88.064 67.84zM271.872 184.064q-10.24 0-17.152 6.912t-6.912 16.64q0 10.24 6.912 17.152t17.152 6.912q9.728 0 16.64-6.912t6.912-17.152q0-9.728-6.912-16.64t-16.64-6.912z" horiz-adv-x="398" />
<glyph unicode="&#xe027;" d="M403.456 278.784q30.208 0 49.408 13.568t20.224 36.096q2.048 33.28-41.472 62.976-34.304 23.040-67.584 34.816-53.76 17.92-128.512 17.92-133.632 0-199.168-58.368-37.376-32.768-35.84-56.832 1.536-23.040 18.688-36.608t46.848-13.568q56.832 0 56.832 47.616 0 4.608-2.048 27.136 13.824 6.656 41.472 12.8v-69.632q-34.816-8.704-54.272-40.448l-34.816-56.832q-23.552-38.912-23.552-75.264 0-51.712 45.056-51.712h281.6q45.056 0 45.056 51.712 0 36.352-23.552 75.264l-34.816 56.832q-19.968 32.768-55.296 40.96v66.56q21.504-6.144 39.424-15.36-1.536-11.264-1.536-19.456-2.048-23.040 13.056-36.608t44.8-13.568zM203.776 372.992q16.896 1.536 31.744 1.536 14.336 0 30.208-2.048v-73.728h-61.952v74.24zM150.528 193.792q-9.216 0-15.36 6.4t-6.144 15.616 6.144 15.872 15.36 6.656q8.704 0 14.848-6.656t6.144-15.872-6.144-15.616-14.848-6.4zM230.4 132.352q-21.504 0-35.84 15.36-11.264 11.776-14.848 26.624l25.6 6.656q5.12-21.504 25.088-21.504 20.992 0 30.208 22.016v0l24.064-10.24q-4.096-10.24-12.8-19.968-17.408-18.944-41.472-18.944zM316.928 238.336q8.704 0 15.104-6.656t6.4-15.872-6.4-15.616-15.104-6.4-14.848 6.4-6.144 15.616 6.144 15.872 14.848 6.656z" horiz-adv-x="502" />
<glyph unicode="&#xe028;" d="M2.048 172.8v-12.288q0-15.36 8.192-26.112t19.968-10.752h38.912q-11.776-8.704-11.776-22.528v-0.512q0-11.776 8.448-19.968t20.224-8.192h0.512q11.776 0 20.224 8.192t8.448 19.968v0.512q0 13.824-11.264 22.528h206.336q-11.264-8.704-11.264-22.528v-0.512q0-11.776 8.192-19.968t19.968-8.192h1.024q11.776 0 19.968 8.192t8.192 19.968v0.512q0 13.824-11.264 22.528h33.792q11.776 0 19.968 10.752t8.192 26.112v12.288h-404.992zM407.040 197.376v122.368q0 15.36-8.192 25.856t-19.968 10.496h-44.032l39.936 39.936-81.408 80.896-81.408-80.896 39.936-39.936h-110.080v19.456h-62.464v-19.456h-49.152q-11.776 0-19.968-10.496t-8.192-25.856v-122.368h404.992zM365.568 319.232v-80.896h-56.832v80.896h56.832zM293.888 434.944l37.376-38.4-37.888-39.424-39.936 39.936zM218.624 319.232h56.832v-80.896h-56.832v80.896zM33.28 301.312q0 14.336 10.752 14.336h30.72q10.752 0 10.752-14.336v-51.712q0-14.336-10.752-14.336h-30.72q-10.752 0-10.752 14.336v51.712z" />
<glyph unicode="&#xe029;" d="M0 172.288v-12.288q0-15.36 8.192-26.112t19.968-10.752h38.912q-11.264-8.192-11.264-22.528v-0.512q0-11.776 8.448-19.968t20.224-8.192h1.024q11.776 0 19.968 8.192t8.192 19.968v0.512q0 14.336-11.264 22.528h208.384q-11.776-8.192-11.776-22.528v-0.512q0-11.776 8.448-19.968t20.224-8.192h1.024q11.776 0 20.224 8.192t8.448 19.968v0.512q0 14.336-11.776 22.528h33.792q12.288 0 20.48 10.752t8.192 26.112v12.288h-408.064zM379.392 356.096h-79.36v18.944h-189.44v-18.944h-82.432q-11.776 0-19.968-10.752t-8.192-26.112v-122.368h408.064v122.368q0 15.36-8.192 26.112t-20.48 10.752zM96.768 237.824h-57.856v80.896h57.856v-80.896zM187.392 237.824h-57.344v80.896h57.344v-80.896zM278.016 237.824h-57.344v80.896h57.344v-80.896zM368.64 237.824h-57.344v80.896h57.344v-80.896z" horiz-adv-x="430" />
<glyph unicode="&#xe02a;" d="M482.816 243.456q-0.512 18.944-16.384 27.648l-19.456 103.424q-5.632 22.016-21.504 34.304-11.776 9.216-25.088 10.752h-1.024l-221.184-0.512q-24.576-3.072-37.888-19.456-10.24-12.288-11.264-28.16l-20.48-86.528-77.312-5.632q-13.312-1.024-22.784-9.984t-9.472-22.272v-85.504q0-13.824 9.472-23.296t22.784-9.472h37.888q3.072-24.576 21.76-40.96t43.776-16.384 43.776 16.384 21.76 40.96h108.544q3.584-24.576 22.272-40.96t43.776-16.384 43.776 16.384 21.76 40.96h12.288q13.312 0 23.040 9.728t9.216 23.040zM135.168 109.312q-11.776 0-20.224 8.448t-8.448 20.224 8.448 20.224 20.224 8.448 20.224-8.448 8.448-20.224-8.448-20.224-20.224-8.448zM262.144 278.272h-108.544l20.992 89.6q0 4.608 8.192 6.144h79.36v-95.744zM373.76 108.288q-11.776 0-20.224 8.448t-8.448 20.224 8.448 20.224 20.224 8.448 20.224-8.448 8.448-20.224-8.448-20.224-20.224-8.448zM307.712 278.272v95.744h88.064q5.12-2.56 6.656-10.24l16.384-86.528z" horiz-adv-x="509" />
<glyph unicode="&#xe02b;" d="M144.384 171.776q-13.312 0-23.296-11.008t-13.056-27.904l-46.592-16.384 48.128-12.288q9.216-32.256 34.816-32.256 15.36 0 26.112 14.592t10.752 35.072q0 20.992-10.752 35.584t-26.112 14.592zM333.312 171.776q-13.312 0-23.296-11.008t-12.544-27.904l-47.104-16.384 48.128-12.288q9.216-32.256 34.816-32.256 15.36 0 26.112 14.592t10.752 35.072q0 20.992-10.752 35.584t-26.112 14.592z" horiz-adv-x="449" />
<glyph unicode="&#xe02c;" d="M61.44 161.536v0q14.848-0.512 22.016-8.96t6.144-21.76q-2.048-22.528-31.232-23.552l0.512-33.28q20.992 0 38.4 11.264 23.040 14.848 25.6 43.008 2.048 27.648-13.824 45.568-17.92 19.968-46.592 20.992zM217.088 160.512v0q14.848-0.512 22.528-9.728 6.656-7.168 5.632-20.992-2.048-22.528-31.232-23.040l0.512-33.792q20.992 0.512 38.4 11.264 23.040 14.848 25.6 43.008 2.048 27.648-13.824 46.080-17.92 19.456-46.080 20.992zM373.248 161.024h-0.512q14.848-1.024 23.040-10.24 6.144-7.168 5.12-20.48-1.536-23.040-30.72-23.552l0.512-33.28q20.992 0 38.4 11.264 23.040 14.336 25.088 42.496 2.56 28.16-13.824 46.080-17.408 19.968-46.080 20.992z" horiz-adv-x="505" />
<glyph unicode="&#xe02d;" d="M14.336 253.696q10.24 0 34.816 9.216 32.256-19.968 102.4-48.64-33.792-11.776-88.576-35.84-24.576-13.824-24.576-22.528 0-10.24 20.992-14.848 14.336-3.584 28.672-3.584 22.528 0 53.76 5.632 55.296 9.728 121.856 33.28 62.976-14.848 103.424-14.848 40.96 0 50.176 14.336 6.144 9.728 6.144 18.944 0 17.92-21.504 32.256-18.944-17.92-54.272-17.92-7.68 0-15.872 0.512 2.048 12.288 4.096 30.72 8.704-1.024 16.384-1.024 24.064 0 36.352 10.752-14.848 21.504-28.672 26.624-9.728 4.096-56.32 10.752-28.672 53.248-36.864 66.048-23.040 36.864-36.864 38.912-24.576 0.512-24.576-47.616 0-20.48 4.608-49.664-59.904 10.24-109.568 17.408-14.336 35.328-31.744 73.728l-3.584 1.024q-7.68 1.536-22.016-1.024-0.512-31.744 5.12-72.704-8.704-8.192-8.704-27.648-37.888-16.384-37.888-26.112 0-6.144 12.8-6.144zM254.976 229.632q0 7.68 5.376 13.312t13.056 5.632q17.92 0 17.92-18.432t-18.432-18.432q-7.68-0.512-12.8 4.864t-5.12 13.056zM186.88 243.968q0 7.68 5.376 13.056t13.568 5.376q18.432 0 18.432-18.432 0-7.68-5.376-13.056t-13.056-5.376q-8.192 0-13.568 5.376t-5.376 13.056z" horiz-adv-x="456" />
<glyph unicode="&#xe02e;" d="M205.824 194.304q-32.256 0-55.040 23.040t-22.784 55.296q0 32.768 22.528 55.552t55.296 22.784 55.552-22.784 22.784-55.552-22.784-55.552-55.552-22.784zM222.72 397.568h-36.864v63.488h36.864v-63.488zM81.408 289.536v-36.864h-62.976v36.864h62.976zM188.928 147.712h37.376v-63.488h-37.376v63.488zM330.752 255.744v37.376h62.976v-37.376h-62.976zM306.176 348.928l-26.112 26.624 44.544 44.544 26.112-26.112zM105.984 196.352l26.112-26.112-44.544-45.056-26.112 26.112zM282.112 172.288l26.112 26.112 44.544-44.544-26.112-26.624zM130.048 372.992l-26.112-26.112-44.544 45.056 26.112 26.112z" horiz-adv-x="430" />
<glyph unicode="&#xe02f;" d="M280.064 433.408q70.656-22.016 114.432-81.152t43.776-133.376q0-14.336-1.536-28.672-10.24 23.552-31.232 37.376t-46.592 13.824q-40.448 0-66.048-31.744-9.728 44.544-51.2 60.928l-35.328-146.432q-1.024-24.576-16.128-40.448t-39.168-15.872q-8.704 0-19.456 2.56-45.568 10.752-45.568 61.952 0 8.192 1.536 15.36 3.584 15.872 19.456 12.8 10.752-2.048 12.8-19.456-1.024-4.608-1.024-9.728 0-24.576 19.968-29.184 34.304-8.192 35.328 24.576l35.328 150.016q-42.496 0-68.096-33.792-5.12 30.72-28.672 50.432t-54.784 19.712q-33.28 0-57.856-22.528 23.040 68.608 81.664 110.848t131.328 42.24q17.92 0 35.328-2.56l6.656 26.624q3.072 12.8 13.824 12.8 18.432 0 18.432-14.336 0-2.56-0.512-5.632z" horiz-adv-x="461" />
<glyph unicode="&#xe030;" d="M379.392 225.536l-17.408 25.088-57.856-40.448q-3.584 3.584-14.336 11.264 27.648 23.040 29.696 62.464 0 35.328-23.552 62.464l25.088 104.96-86.528 28.672-60.416-88.576q-53.248-3.072-89.088-33.536t-34.816-75.008q1.024-12.288 4.608-23.040 9.216-26.112 30.208-42.496-5.12-2.048-11.776-7.68l-54.784 40.448-18.432-24.576 54.272-39.936q-8.192-17.408-8.192-38.912 0.512-51.712 60.928-76.288h160.256q63.488 27.136 63.488 82.944 0.512 16.896-7.68 32.256zM114.176 291.072q-9.216 0-15.872 6.656t-6.656 15.872 6.656 15.872 15.872 6.656q9.728 0 16.384-6.656t6.656-15.872-6.656-15.872-16.384-6.656zM220.672 234.24h-73.216v30.72h73.216v-30.72zM243.2 288.512q-9.216 0-15.872 6.656t-6.656 15.872 6.656 15.872 15.872 6.656q9.728 0 16.384-6.656t6.656-15.872-6.656-15.872-16.384-6.656z" horiz-adv-x="399" />
<glyph unicode="&#xe031;" d="M510.976 182.016q-1.536-4.608-5.12-10.24l77.312-26.112-14.336-42.496-92.672 31.232q-67.584-62.976-178.176-62.976-112.64 0-180.224 65.024l-98.304-33.28-13.824 42.496 83.456 28.16q-3.072 5.632-4.096 7.68l-83.968 3.584 1.536 45.056 71.68-3.072v3.072q0 38.4 24.576 72.704-8.192 63.488-8.192 110.592 0 67.584 21.504 67.584 34.304 0 126.976-97.792 29.696 5.632 58.88 5.632 27.136 0 55.808-5.12 92.672 97.28 126.464 97.28 21.504 0 21.504-67.584 0-45.056-7.68-106.496 27.648-35.84 27.648-76.8v-3.072l64 3.072 2.048-45.056zM195.072 211.2q13.312 0 22.528 9.216t9.216 22.528-9.216 22.528-22.528 9.216-22.528-9.216-9.216-22.528 9.216-22.528 22.528-9.216zM400.896 211.2q13.312 0 22.528 9.216t9.216 22.528-9.216 22.528-22.528 9.216-22.528-9.216-9.216-22.528 9.216-22.528 22.528-9.216z" horiz-adv-x="616" />
<glyph unicode="&#xe032;" d="M377.856 241.408q-7.168-24.064-52.736-27.648-38.912-1.536-49.664 62.976h57.856v36.864h-57.856v51.712q0 36.352-25.6 62.208t-61.44 25.856-61.184-25.856-25.344-62.208v-119.296q-6.144-28.672-37.376-35.84-3.584-0.512-8.704-0.512-31.744 0-51.2 28.672-4.096-10.24-4.096-20.48 0-33.792 42.496-53.76 18.432-6.656 40.448-6.656 41.984 0 73.728 27.648 2.048-26.624-14.848-40.96-25.088-17.408-44.032-17.408-5.632 0-10.24 1.536 12.288-20.48 50.176-20.48 19.968 0 41.472 5.12 61.952 19.968 61.952 60.928 0 7.68-2.56 15.872 28.672-30.72 70.144-30.72 14.848 0 27.136 3.584 47.616 19.456 47.616 54.784 0 11.776-6.144 24.064zM157.184 299.264q-8.192 0-14.080 5.888t-5.888 14.592q0 8.192 5.888 14.080t14.080 5.888q8.704 0 14.592-5.888t5.888-14.080q0-8.704-5.888-14.592t-14.592-5.888zM232.96 320.768q-8.192 0-14.080 5.888t-5.888 14.080q0 8.704 5.888 14.592t14.080 5.888q8.704 0 14.592-5.888t5.888-14.592q0-8.192-5.888-14.080t-14.592-5.888z" horiz-adv-x="400" />
<glyph unicode="&#xe033;" d="M352.768 331.52q16.896-12.288 16.896-91.648 0-61.44-11.264-74.24-3.072-3.584-11.776-3.584-31.744 0-122.368 44.544-9.728-23.552-31.744-23.552-22.528 0-32.256 23.552-90.624-44.544-122.368-44.544-8.704 0-11.776 3.584-11.264 13.312-11.264 72.192 0 81.408 16.896 93.696 3.584 2.56 9.216 2.56 31.232 0 123.392-50.688 10.752 15.36 28.16 15.36 16.896 0 27.648-15.36 92.16 50.688 123.392 50.688 5.632 0 9.216-2.56zM83.968 250.112q1.536-19.456 22.016-19.456 17.408 0 45.568 15.36-31.744 21.504-49.664 21.504-16.896 0-17.92-17.408zM232.96 246.016q28.16-15.36 45.568-15.36 20.48 0 22.528 19.456-1.536 17.408-18.432 17.408-17.92 0-49.664-21.504z" horiz-adv-x="391" />
<glyph unicode="&#xe034;" d="M32.256 250.112q0 10.24-11.008 39.68t-11.008 43.264q0 8.192 4.608 9.728 9.216 2.56 41.984-29.696t37.888-32.768q4.096-1.024 36.352 11.776 44.544 17.408 70.144 25.088 45.568 13.312 80.896 13.312 49.152 0 103.936-15.872 74.752-21.504 74.752-58.368 0-37.376-78.336-58.368-56.832-15.36-107.52-15.36-44.544 0-86.528 12.8-23.040 7.168-60.416 24.576-27.136 12.8-33.28 12.8-8.192 0-35.84-30.208t-37.376-30.208q-7.68 0-7.68 10.24t9.216 35.584 9.216 32zM327.68 260.864q0-10.24 7.168-17.408t17.408-7.168 17.152 7.168 6.912 17.408-6.912 17.152-17.152 6.912-17.408-6.912-7.168-17.152z" horiz-adv-x="482" />
<glyph unicode="&#xe035;" d="M454.656 182.016q0 29.696-27.648 49.152-29.696 21.504-78.336 18.944-45.056-2.048-80.384-45.568-3.072 18.944-19.456 33.536t-35.328 14.592q24.576 27.648 24.576 62.464 0 30.72-18.688 55.552t-49.408 36.096l10.24 34.304 47.104-29.696 16.896 26.624-64.512 40.448q-6.656 4.096-13.824 1.536t-9.728-10.24l-16.896-55.808q-7.168 1.024-12.8 1.024-8.704 0-18.432-1.536l-15.872 53.248q-2.56 7.168-9.728 10.24-7.168 2.56-13.824-1.536l-68.608-43.52 16.896-26.624 51.2 32.256 9.728-32.256q-28.672-12.288-46.080-36.608t-17.408-53.504q0-41.472 32.768-70.656t79.36-29.184q14.848 0 30.208 4.096 1.536-9.216 4.608-18.432-34.816-28.16-67.072-29.184-32.768-1.024-60.416 27.648l-22.528-22.528q37.376-37.888 83.968-36.352 40.448 1.024 81.408 32.256 3.072-3.072 7.168-6.144l-35.328-59.904 27.136-15.872 37.888 64.512q5.632-0.512 10.752-0.512 26.624 0 38.4 18.432 8.192-10.24 20.48-20.48v-75.264h31.232v53.248q15.36-8.192 30.72-11.264l38.4-49.152 24.576 19.456-21.504 27.648q33.28 3.072 51.712 22.528 16.384 17.408 16.384 41.984zM50.688 343.808q0 9.728 6.656 16.384t15.872 6.656q9.728 0 16.384-6.656t6.656-16.384q0-9.216-6.656-15.872t-16.384-6.656q-9.216 0-15.872 6.656t-6.656 15.872zM112.128 264.448q-6.656 0.512-12.288 3.072-12.288 6.144-15.36 20.992h57.344q-4.608-22.528-29.696-24.064zM176.64 317.184q-9.216 0-15.872 6.656t-6.656 15.872q0 9.728 6.656 16.384t15.872 6.656q9.728 0 16.384-6.656t6.656-16.384q0-9.216-6.656-15.872t-16.384-6.656z" horiz-adv-x="464" />
<glyph unicode="&#xe036;" d="M455.168 291.072q-7.68-40.448-20.992-55.808 2.048-76.8-52.224-115.2-47.616-33.28-129.536-33.28-59.904 0-111.104 23.552-65.536 29.696-65.536 82.432 0 41.984 51.2 77.312-0.512 3.584-27.136 30.72-9.728-0.512-18.432-0.512-69.632 0-75.264 28.672 6.144 26.112 83.456 31.232 12.288 48.64 59.392 63.488 21.504 7.168 45.056 5.12 30.208-2.048 50.176-29.696 17.92-25.6 17.92-56.832 0-40.96-31.232-61.952l164.864-12.8-1.536 2.56q6.144-1.024 12.288-1.024 26.624 0 48.64 22.016zM177.152 329.984q9.728 0 16.64 6.912t6.912 16.64-6.912 16.896-16.64 7.168q-10.24 0-16.896-7.168t-6.656-16.896 6.656-16.64 16.896-6.912z" horiz-adv-x="467" />
<glyph unicode="&#xe037;" d="M314.88 191.744q20.48 12.288 42.24 38.912t27.904 46.592l-52.224-16.896q-72.704 27.136-120.832 38.4 40.448 28.16 40.448 76.288 0 36.864-26.112 64 23.040 3.584 35.328 13.568t12.8 25.856l-28.672 1.536q0-3.072-3.072-5.12-14.336-11.776-65.536-8.192-11.264 2.56-22.016 2.56h-1.536q-39.936-0.512-68.096-27.904t-28.16-66.304q0-0.512 0.512-5.12-59.904-17.92-57.856-24.064t69.12-15.36q23.040-40.96 70.656-48.128-23.552-14.848-23.552-42.496 0-10.752 3.584-23.040 9.216-32.256 37.376-49.152 25.6-15.872 60.416-15.872 15.36 0 30.72 3.584l-33.28-46.592-38.4-0.512v-29.184h53.248l50.688 71.68-14.336 9.728q10.24 3.584 16.896 7.68 3.072 2.048 8.704 5.632l39.936-62.976-19.968-19.968 20.48-20.48 36.864 36.864zM132.096 360.704q-9.728 0-16.384 6.656t-6.656 16.384 6.656 16.384 16.384 6.656q9.216 0 16.128-6.656t6.912-16.384-6.912-16.384-16.128-6.656z" horiz-adv-x="404" />
<glyph unicode="&#xe038;" d="M52.224 421.632q14.336 9.216 33.792 9.216 49.664 0 118.272-115.2 74.752 116.736 122.368 116.736 17.408 0 29.184-8.192 5.632-5.12 5.632-19.456 0-42.496-39.936-126.464-46.080-95.744-120.32-187.392-71.168 91.136-115.712 187.392-38.912 82.944-38.912 124.928 0 13.312 5.632 18.432z" horiz-adv-x="413" />
<glyph unicode="&#xe039;" d="M179.2 263.424q28.672 9.216 46.080 26.112 18.944 18.944 18.944 41.984 0.512 30.72-29.184 58.368 16.896 3.584 27.648 15.616t10.752 27.904q0.512 18.944-14.080 32.512t-35.072 14.080q-20.48 0-35.328-13.056t-14.848-32q0-6.656 2.56-13.824-11.776 2.56-22.016 2.56-9.728 0-20.48-1.536 1.024 4.096 1.024 7.68 0.512 18.944-13.824 32.512t-35.328 14.080q-20.48 0-35.328-13.312t-14.848-32.256q-0.512-32.256 33.28-43.52-22.528-23.040-22.528-49.152-0.512-23.552 17.408-44.032 16.384-18.432 43.52-28.672-87.552-17.408-87.552-51.2 0-5.12 2.816-10.752t13.568-5.632q23.552 0 70.656 32.768-9.216-14.848-9.216-30.208 0-16.896 10.24-30.208-51.712-44.032-51.712-76.8 0-12.8 7.168-20.48 3.072-2.56 7.68-2.56 30.208 0 76.288 82.432 46.080-82.432 79.872-82.432 5.632 0 9.216 2.56 6.144 5.632 6.144 16.384 0 30.208-52.224 76.288 12.8 14.336 12.8 33.792 0 14.848-6.656 28.16 43.008-27.648 66.56-27.648 11.264 0 15.36 5.632 2.56 5.12 2.56 9.728 0 28.16-81.92 48.128zM80.896 329.984q-7.168 0.512-12.288 5.632t-5.12 12.8q0 7.168 5.376 12.544t12.544 4.864q7.68 0 12.8-5.376t5.12-12.544q0-7.68-5.376-12.8t-13.056-5.12zM171.008 345.344q0 7.68 5.376 12.8t12.544 5.12q7.68-0.512 12.8-5.632t5.12-12.8q0-7.168-5.376-12.544t-13.056-4.864q-7.168 0-12.288 5.376t-5.12 12.544z" horiz-adv-x="275" />
<glyph unicode="&#xe03a;" d="M315.392 435.968q-8.704 3.072-17.92 3.072-18.944 0-32.512-12.288t-13.568-30.72q-17.92 11.264-38.912 14.336 6.144 10.24 6.144 21.504 0 14.336-9.216 26.88t-24.576 18.176q-8.704 3.072-17.92 3.072-18.944 0-32.512-12.288t-13.568-31.232q0-22.528 19.456-36.864-40.448-20.992-40.448-58.88 0-35.84 34.816-66.048-36.352 8.704-58.368 8.704-29.184 0-25.6-16.896 13.312-34.816 79.36-30.208-40.448-13.312-40.448-53.76-30.208 7.68-50.176 7.68-39.424 0-39.424-25.6 0-3.584 1.024-6.656 7.68-15.872 45.056-15.872 30.208 0 74.752 11.264-55.296-44.032-55.296-68.096 0-9.728 7.68-13.312 4.608-2.048 10.752-2.048 43.008 0 78.848 77.312 25.6 21.504 28.16 59.904-1.536-72.704 24.064-72.704 4.096 0 9.216 2.56 12.8 6.656 12.8 28.672 0 28.16-19.456 75.776 30.72-1.536 53.76 8.704 25.6 11.264 33.28 33.792 3.584 9.728 3.584 20.48 0 20.992-11.776 43.52 16.384-2.048 30.464 5.888t19.2 22.784q2.56 6.656 2.56 14.336 0 14.336-8.96 26.88t-24.32 18.176zM157.696 334.592q-7.168 0-12.544 5.12t-5.376 12.288q0 7.68 5.376 12.8t12.544 5.12 12.544-5.12 5.376-12.8q0-7.168-5.376-12.288t-12.544-5.12zM257.024 297.216q-7.168 0-12.288 5.12t-5.12 12.288 5.12 12.544 12.288 5.376q7.68 0 12.8-5.12t5.12-12.8q0-7.168-5.12-12.288t-12.8-5.12z" horiz-adv-x="366" />
<glyph unicode="&#xe03b;" d="M317.952 194.816q11.264-7.68 20.992-7.68 11.264 0 16.896 12.288 3.584 7.168 3.584 14.336 0 23.040-30.72 48.64 4.608 16.384 5.12 32.768 1.536 64-27.648 114.688-37.888 66.56-114.176 70.144-78.848 3.072-127.488-54.272-43.008-50.176-43.008-116.224 0-21.504 5.12-44.544-26.624-24.064-26.624-45.568 0-7.168 3.072-14.336 5.632-12.8 17.408-12.8 17.92 0 28.16 15.872 75.264-135.168 307.2-137.728-69.12 23.552-74.752 74.752 0 23.552 24.576 66.56 6.144-13.312 12.288-16.896zM104.448 365.824q-10.24 0-17.664 7.168t-7.424 17.408 7.424 17.664 17.664 7.424 17.408-7.424 7.168-17.664-7.168-17.408-17.408-7.168zM162.304 269.568q-10.752 0.512-18.432 4.608-18.432 8.704-19.456 30.208h80.896q0-32.256-43.008-34.816zM247.808 335.616q-10.24 0-17.664 7.168t-7.424 17.408 7.424 17.664 17.664 7.424 17.408-7.424 7.168-17.664-7.168-17.408-17.408-7.168z" horiz-adv-x="378" />
<glyph unicode="&#xe03c;" d="M219.136 342.784q22.528 4.096 42.496 4.096 59.392 0 84.992-33.28 14.336-18.944 14.336-43.008 0-14.336-5.12-30.208-15.36-46.592-60.416-75.264-101.376-64-295.424-94.72 19.456 87.552 19.456 152.064 0 74.24 15.872 129.024 23.552 82.432 78.336 88.576 4.608 0.512 9.728 0.512 60.928 0 68.096-85.504 60.928 82.432 136.192 111.616 39.424 15.36 67.072 13.312l-2.56-29.184q-22.528 1.536-56.32-12.288-64-26.112-116.736-95.744zM191.488 355.072q-25.6-34.304-47.616-76.8-59.392-114.688-82.944-138.24l20.48-21.504q25.6 25.088 88.576 146.432 22.528 43.52 49.152 77.824-14.336-2.56-27.136-5.632 0.512 6.656-0.512 17.92z" horiz-adv-x="414" />
<glyph unicode="&#xe03d;" d="M33.792 95.488q-10.24 10.24-23.552 17.92l-3.584-10.24q-2.56-7.68-2.56-13.824 0-9.216 4.352-13.568t12.544-4.352q7.168 0 15.872 3.584l9.728 3.072q-5.632 10.24-12.8 17.408zM84.992 224l222.72 222.208q-7.168 2.56-24.064 5.632l-229.888-229.376zM102.912 208.64l6.656-31.232 32.256-7.168 228.352 228.352-39.936 36.864zM134.656 147.712l-45.056 9.728-8.704 42.496-41.984-1.536-20.992-61.952q17.92-9.728 32.256-24.064 11.264-11.264 18.944-27.136l68.096 21.504zM157.696 152.832l2.048-28.16 226.304 226.304q1.536 9.216-4.096 25.6z" horiz-adv-x="397" />
<glyph unicode="&#xe03e;" d="M2.56 124.672q6.144 0 43.776 37.632t48.896 37.632q2.56 0 4.096-1.536 2.56-3.072-35.328-45.056-40.448-44.032-40.448-54.272 0-4.096 3.584-4.096 9.216 0 51.2 37.888t47.616 37.888q2.56 0 2.56-3.584 0-9.728-36.864-48.896t-36.864-45.824q0-2.048 2.56-2.048 10.752 0 42.496 20.48 36.352 23.040 60.928 49.664 31.232 33.792 31.232 62.464 0 15.872-9.728 29.184 73.216 61.952 128 115.712 91.136 90.112 91.136 119.808 0 12.288-11.264 12.288-46.592 0-227.84-228.352-13.312 7.68-28.16 7.68-29.184 0-63.488-29.696-27.136-24.064-50.176-59.392-20.48-31.744-20.48-42.496 0-3.072 2.56-3.072z" horiz-adv-x="422" />
<glyph unicode="&#xe03f;" d="M404.48 395.008q0 35.328-24.064 60.16t-57.856 24.832-57.856-24.832-24.064-60.16q0-14.336 4.608-28.16-24.576 5.632-48.64 5.632-18.432 0-36.864-3.072 3.584 12.288 3.584 25.6 0 35.328-23.808 60.16t-57.6 24.832-57.856-24.832-24.064-60.16q0-27.136 14.848-48.896t38.4-30.976q-39.424-41.472-39.424-93.696 0-62.464 53.504-106.752t129.28-44.288 129.28 44.288 53.504 106.752q0 50.176-36.864 90.624 26.624 7.168 44.288 30.208t17.664 52.736zM102.912 228.608q-10.24 0-17.92 7.68t-7.68 17.92q0 10.752 7.68 18.176t17.92 7.424q10.752 0 18.176-7.424t7.424-18.176q0-10.24-7.424-17.92t-18.176-7.68zM196.096 142.592q-28.672 0-49.664 18.432-15.872 13.312-20.992 30.208l30.72 10.24q9.216-26.112 39.936-26.112 31.744 0 40.96 23.552h-0.512l30.72-10.752q-4.096-11.776-15.36-23.552-21.504-22.016-55.808-22.016zM288.768 228.608q-10.752 0-18.176 7.68t-7.424 17.92q0 10.752 7.424 18.176t18.176 7.424q10.24 0 17.664-7.424t7.424-18.176q0-10.24-7.424-17.92t-17.664-7.68z" horiz-adv-x="425" />
<glyph unicode="&#xe040;" d="M237.568 275.2q3.072 5.632 7.168 13.824 30.208 73.216 30.208 124.416 0 25.088-9.216 41.984-11.264 22.528-34.304 22.528-29.184 0-51.2-51.2t-24.064-123.392q-7.168 0.512-12.288 0.512-12.288 0-25.6-2.048-1.024 73.728-23.296 125.952t-51.968 52.224q-22.528 0-34.304-22.016-8.704-17.408-8.704-42.496 0-51.2 30.208-123.904 4.608-9.728 11.264-24.064-40.448-36.864-40.448-80.384 0-48.64 41.728-82.688t101.12-34.048q58.88 0 100.608 34.048t41.728 82.688q0 51.2-48.64 88.064zM65.024 179.456q-9.728 0-16.64 6.912t-6.912 16.64 6.912 16.896 16.64 7.168 16.896-7.168 7.168-16.896-7.168-16.64-16.896-6.912zM168.96 120.576h-50.688v27.648h50.688v-27.648zM217.6 179.456q-9.728 0-16.64 6.912t-6.912 16.64 6.912 16.896 16.64 7.168 16.64-7.168 6.912-16.896-6.912-16.64-16.64-6.912z" horiz-adv-x="301" />
<glyph unicode="&#xe041;" d="M36.864 135.936l-36.864 161.792 134.656-80.896 90.624 147.968 91.136-147.968 124.928 76.288-30.72-157.184h-373.76zM403.968 70.4h-360.448v33.792h360.448v-33.792zM20.992 406.272l29.696 27.136 53.76-59.392-30.208-26.624zM199.68 480h40.448v-79.872h-39.936zM433.664 404.736l-51.2-61.44-30.72 26.112 51.2 60.928z" horiz-adv-x="464" />
<glyph unicode="&#xe042;" d="M142.848 265.472q-0.512 8.704-0.512 10.752 0 71.168 49.664 120.832t120.832 49.664 120.576-49.664 49.408-120.832q0-70.656-49.664-120.32t-120.32-49.664q-45.568 0-84.48 22.272t-62.464 61.184q-18.944 2.56-30.72 1.536-14.336-1.024-34.304-8.704-44.032-16.896-92.672-56.832 20.48 22.528 37.888 55.296 20.992 39.424 26.624 46.592 21.504 27.648 70.144 37.888zM438.784 327.936q0 11.776-8.192 20.224t-19.968 8.448-20.224-8.448-8.448-20.224 8.448-19.968 20.224-8.192 19.968 8.192 8.192 19.968zM327.168 198.912q57.856 3.584 65.536 45.056h-129.536q10.752-41.984 64-45.056zM236.032 285.44q11.776 0 20.224 8.448t8.448 20.224-8.448 20.224-20.224 8.448-19.968-8.448-8.192-20.224 8.192-20.224 19.968-8.448z" horiz-adv-x="492" />
<glyph unicode="&#xe043;" d="M241.664 184.576q-13.824 0-23.296 10.496t-9.472 25.344q0 14.336 9.472 24.832t23.296 10.496 23.552-10.496 9.728-24.832q0-14.848-9.728-25.344t-23.552-10.496zM14.848 472.832q9.216 7.168 19.968 7.168 51.712 0 134.144-142.336 35.84 24.576 78.848 24.576 58.368 0 100.096-42.752t41.728-103.168-41.728-103.168-100.096-42.752q-58.88 0-100.352 42.752t-41.472 103.168q0 46.592 26.112 84.48-60.928 46.592-94.72 86.016-53.76 61.44-22.528 86.016zM262.656 127.232q25.6 9.216 33.792 25.6 5.12 9.728 6.144 31.232t6.656 31.744q13.824 24.576 13.824 41.472 0 24.064-24.576 44.032-12.8 10.752-30.208 10.752-26.624 0-52.224-22.784t-36.352-58.624q-4.096-14.848-4.096-29.696 0-32.768 18.688-55.296t46.336-22.528q10.752 0 22.016 4.096zM56.832 443.136q0 7.168-4.864 12.288t-12.032 5.12q-6.656 0-11.52-5.12t-4.864-12.288 4.864-12.544 11.52-5.376q7.168 0 12.032 5.376t4.864 12.544z" horiz-adv-x="405" />
<glyph unicode="&#xe044;" d="M17.408 211.2l87.040 73.216q7.68 6.656 19.456 6.656 16.384 0 29.696-11.264l15.872-12.8 41.472 50.688q-3.072 6.144-3.072 13.312 0 9.216 5.632 15.872l94.72 114.688q7.168 9.216 19.968 9.216 11.776 0 21.504-8.192 12.288-10.24 12.288-25.088 0-9.216-5.632-16.384l-94.72-114.688q-9.728-12.288-27.648-8.192l-41.472-50.176 16.384-13.312q16.896-13.824 16.896-33.28 0-7.68-3.584-13.824l-56.832-97.792q-12.8-22.016-37.376-22.016-15.872 0-28.672 10.752l-80.896 66.048q-16.896 13.824-16.896 33.792 0 19.456 15.872 32.768zM328.192 422.656q12.8 0 12.8 12.8 0 13.312-12.8 13.312t-12.8-13.312q0-12.8 12.8-12.8zM135.168 105.216q7.168 0 12.288 7.168l52.224 82.944q5.632 8.192-3.072 15.36t-14.336-1.024l-56.32-79.36q-3.584-4.608-3.584-10.752 0-14.336 12.8-14.336zM94.208 140.544q7.68 0 12.288 6.144l59.904 76.8q6.144 7.68-2.56 14.848-8.192 7.168-14.848-0.512l-63.488-73.216q-4.608-4.608-4.608-10.752 0-13.312 13.312-13.312zM51.712 174.848q7.68 0 12.8 6.144l66.56 70.656q7.168 7.168-1.536 14.336-8.192 7.168-15.36 0l-71.168-67.072q-5.12-5.12-5.12-11.264 0-12.8 13.824-12.8z" horiz-adv-x="387" />
<glyph unicode="&#xe045;" d="M29.696 300.8q-29.696-36.352-29.696-78.848 0-71.168 70.656-114.176 60.416-37.376 135.168-37.376 58.368 0 108.032 23.040-29.696 10.24-63.488 29.696l17.408 31.744q64-35.328 103.936-37.376 86.528 15.36 98.816 81.92 1.536 7.68 1.024 14.336 16.896 16.384 16.896 38.4 0 28.672-24.064 28.672-19.456 0-34.304-21.504-12.288 3.584-27.136 5.12-12.8 32.256-43.52 58.368h2.56q-4.608 26.624-15.872 79.872-16.896 73.216-46.592 73.216-31.232 0-70.656-102.912-12.288 1.024-23.040 1.024-20.992 0-40.96-3.072-50.688 109.056-83.968 109.056-27.648 0-41.472-77.824-7.168-43.52-9.728-101.376zM326.144 254.208q-10.752 0-18.688 7.424t-7.936 18.688q0 10.752 7.936 18.688t18.688 7.936q11.264 0 19.2-7.936t7.936-18.688q0-11.264-7.936-18.688t-19.2-7.424zM161.28 235.264q-11.264 0-19.2 7.68t-7.936 18.944q0 10.752 8.192 18.432t18.944 7.68q11.264 0 18.944-7.68t7.68-18.432q0-11.264-7.424-18.944t-19.2-7.68z" horiz-adv-x="506" />
<glyph unicode="&#xe046;" d="M123.392 432.896q-27.136-39.936-27.136-87.552 0-75.264 58.88-121.856l21.504 27.648 28.16-22.528-18.944-24.064q14.848-7.168 31.232-10.752 0.512-12.8-5.12-20.48-10.24-14.336-40.96-14.848v-26.624q53.76 0.512 68.608 36.352 4.096 9.728 4.096 22.016 8.704-0.512 7.68-0.512 77.312 0 123.904 61.952-2.048-75.264-56.32-128.256t-130.56-52.992q-77.312 0-132.096 55.040t-54.784 132.352q0 59.392 33.792 107.008t88.064 68.096zM103.424 182.528q9.728 0 16.64 6.912t6.912 16.64-6.912 16.896-16.64 7.168-16.64-7.168-6.912-16.896 6.912-16.64 16.64-6.912z" horiz-adv-x="398" />
<glyph unicode="&#xe047;" d="M256 326.4l-48.64 34.304 25.6 36.352q7.68 11.264-3.584 19.456-11.264 7.68-18.944-3.584l-26.112-36.864q-7.168 3.072-14.336 3.072-16.384 0-24.576-12.288l-140.288-198.656q-5.12-7.168-5.12-16.384 0-17.92 15.36-28.672l65.536-46.080q9.728-6.656 20.992-6.656 15.872 0 24.576 12.288l140.288 198.656q5.12 7.168 5.12 16.384 0 17.92-15.872 28.672zM119.808 226.048l2.56 3.072q6.144 8.704 14.848 2.56l3.072-2.048q8.704-6.144 2.56-14.848l-2.56-3.072q-6.144-8.704-14.848-2.56l-3.072 2.048q-8.704 6.144-2.56 14.848zM85.504 250.112l2.048 3.072q6.144 8.704 14.848 2.56l3.072-2.048q8.704-6.144 2.56-14.848l-2.048-3.072q-6.144-8.704-14.848-2.56l-3.072 2.048q-8.704 6.144-2.56 14.848zM62.976 174.848l-2.56-3.072q-6.144-8.704-14.848-2.56l-3.072 2.048q-8.704 6.144-2.56 14.848l2.56 3.072q6.144 8.704 14.848 2.56l3.072-2.048q8.704-6.144 2.56-14.848zM65.536 203.52q-8.704 6.144-2.56 14.848l2.048 3.072q6.144 8.704 14.848 2.56l3.072-2.048q8.704-6.144 2.56-14.848l-2.048-3.072q-6.144-8.704-14.848-2.56zM97.28 150.272l-2.048-3.072q-6.144-8.704-14.848-2.56l-3.072 2.56q-8.704 5.632-2.56 14.848l2.048 2.56q6.144 8.704 14.848 3.072l3.072-2.56q8.704-6.144 2.56-14.848zM99.84 178.944q-8.704 6.144-2.56 14.848l2.56 3.072q6.144 8.704 14.848 2.56l3.072-2.048q8.704-6.144 2.56-14.848l-2.56-3.072q-6.144-8.704-14.848-2.56zM133.12 125.184l-2.56-3.072q-5.632-8.704-14.848-2.56l-2.56 2.56q-8.704 6.144-3.072 14.848l2.56 3.072q6.144 8.704 14.848 2.56l3.072-2.56q8.704-5.632 2.56-14.848zM155.648 157.44l-2.048-3.072q-6.144-8.704-14.848-2.56l-3.072 2.048q-8.704 6.144-2.56 14.848l2.048 3.072q6.144 8.704 14.848 2.56l3.072-2.048q8.704-6.144 2.56-14.848zM178.176 189.696l-2.048-3.072q-6.144-8.704-14.848-2.56l-3.072 2.048q-8.704 6.144-2.56 14.848l2.048 3.072q6.144 8.704 14.848 2.56l3.072-2.048q8.704-6.144 2.56-14.848zM238.080 290.56l-36.352-50.688q-5.632-8.704-15.872-1.536l-56.32 39.936q-9.728 6.656-4.096 15.36l36.352 50.688q5.632 8.704 15.872 1.536l56.32-39.424q9.728-7.168 4.096-15.872zM248.832 423.168l23.552 33.792-17.408 12.288-23.552-33.792zM218.624 439.040l-5.12 40.96-20.992-2.56 5.12-40.96zM256 412.928l40.448 8.704 4.608-20.48-40.448-9.216z" horiz-adv-x="316" />
<glyph unicode="&#xe048;" d="M404.48 172.8v-12.288q0-15.36-8.448-26.112t-20.224-10.752h-38.4q11.264-8.704 11.264-22.528v-0.512q0-11.776-8.448-19.968t-19.712-8.192h-1.024q-11.776 0-19.968 8.192t-8.192 19.968v0.512q0 13.824 11.264 22.528h-206.848q11.264-8.704 11.264-22.528v-0.512q0-11.776-8.192-19.968t-19.968-8.192h-0.512q-11.776 0-20.224 8.192t-8.448 19.968v0.512q0 13.824 11.264 22.528h-33.28q-11.776 0-20.224 10.752t-8.448 26.112v12.288h405.504zM-1.024 197.376v122.368q0 15.36 8.448 25.856t20.224 10.496h43.52l-39.936 39.936 81.408 80.896 81.408-80.896-39.424-39.936h109.568v19.456h62.464v-19.456h49.152q11.776 0 20.224-10.496t8.448-25.856v-122.368h-405.504zM40.448 319.232v-80.896h57.344v80.896h-57.344zM112.128 434.944l-37.376-38.4 38.4-39.424 39.936 39.936zM187.904 319.232h-57.344v-80.896h57.344v80.896zM373.248 301.312q0 14.336-11.264 14.336h-30.208q-11.264 0-11.264-14.336v-51.712q0-14.336 11.264-14.336h30.208q11.264 0 11.264 14.336v51.712z" />
<glyph unicode="&#xe049;" d="M86.016 276.224q8.192 0 14.080 5.632t5.888 14.336q0 8.192-5.888 14.080t-14.080 5.888-14.080-5.888-5.888-14.080q0-8.704 5.888-14.336t14.080-5.632zM202.752 277.76q8.192 0 14.080 5.888t5.888 14.080-5.888 14.080-14.080 5.888-14.080-5.888-5.888-14.080 5.888-14.080 14.080-5.888zM104.448 241.408q11.264-30.72 41.984-28.672 29.696 1.536 41.984 27.648l-21.504 9.728q-6.656-13.312-21.504-14.336-13.312-0.512-18.944 13.824v0.512l-0.512 0.512zM278.016 371.456h-93.184q62.464 45.568 60.416 77.824-0.512 13.824-12.544 23.552t-25.856 9.728q-8.704 0-16.384-4.608-30.72-17.408-41.472-96.256-11.264 80.896-41.472 97.792-8.192 4.608-16.896 4.608-8.192 0-16.384-4.096-20.992-10.24-22.016-28.672-1.536-33.28 62.976-79.872h-75.264q-16.384 0-28.16-11.52t-11.776-28.416v-156.16q0-16.896 11.776-28.672t28.16-11.776h5.632l-11.264-52.736q2.048-6.656 14.848-10.752 10.24-1.536 15.872 4.608l18.944 58.88h141.824l18.944-59.904q6.144-6.656 15.872-4.608 4.096 1.024 7.168 2.56 6.656 3.584 7.68 8.192l-11.264 53.76h13.824q16.384 0 28.16 11.776t11.776 28.672v156.16q0 16.896-11.776 28.416t-28.16 11.52zM174.592 393.472q10.24 54.784 27.136 64 5.12 3.072 11.264 0 8.704-4.096 8.704-9.216 1.024-18.432-47.104-54.784v0zM75.776 449.792q0 5.12 8.704 9.216 6.656 3.072 11.264 0.512 16.896-9.728 27.136-64.512-48.128 36.864-47.104 54.784zM251.392 228.608q0-16.384-11.776-28.16t-28.16-11.776h-132.608q-16.384 0-27.904 11.776t-11.52 28.16v74.752q0 16.384 11.52 27.904t27.904 11.52h132.608q16.384 0 28.16-11.52t11.776-27.904v-74.752zM280.576 165.632q-16.384 0-16.384 16.384t16.384 16.384 16.384-16.384-16.384-16.384z" horiz-adv-x="334" />
<glyph unicode="&#xe04a;" d="M4.608 243.456q0.512 18.944 16.384 27.648l19.456 103.424q5.632 22.016 21.504 34.304 12.288 9.216 25.088 10.752h1.024l221.184-0.512q24.576-3.072 37.888-19.456 10.24-12.288 11.776-28.16l20.48-86.528 76.8-5.632q13.312-1.024 22.784-9.984t9.472-22.272v-85.504q0-13.824-9.472-23.296t-22.784-9.472h-37.376q-3.584-24.576-22.272-40.96t-43.776-16.384-43.776 16.384-21.76 40.96h-108.544q-3.072-24.576-21.76-40.96t-43.776-16.384-43.776 16.384-21.76 40.96h-12.288q-13.824 0-23.296 9.728t-9.472 23.040zM352.256 109.312q12.288 0 20.48 8.448t8.192 20.224-8.192 20.224-20.48 8.448q-11.776 0-20.224-8.448t-8.448-20.224 8.448-20.224 20.224-8.448zM225.792 278.272h108.032l-20.48 89.6q-0.512 4.608-8.704 6.144h-78.848v-95.744zM113.664 108.288q11.776 0 20.224 8.448t8.448 20.224-8.448 20.224-20.224 8.448-20.224-8.448-8.448-20.224 8.448-20.224 20.224-8.448zM179.712 278.272v95.744h-87.552q-5.632-2.56-7.168-10.24l-16.384-86.528z" horiz-adv-x="509" />
<glyph unicode="&#xe04b;" d="M303.616 170.24q13.312 0 23.296-11.008t13.056-27.392l46.592-16.896-48.128-12.288q-9.216-32.256-34.816-32.256-14.848 0-25.856 14.592t-11.008 35.072q0 20.992 11.008 35.584t25.856 14.592zM114.688 170.24q13.312 0 23.296-11.008t13.056-27.392l46.592-16.896-48.128-12.288q-9.216-32.256-34.816-32.256-15.36 0-26.112 14.592t-10.752 35.072q0 20.992 10.752 35.584t26.112 14.592z" horiz-adv-x="449" />
<glyph unicode="&#xe04c;" d="M437.248 160v0q-14.848-1.024-23.040-10.24-6.144-7.168-5.12-20.48 2.048-23.040 30.72-23.552l-0.512-33.28q-20.48 0-37.888 11.264-23.552 14.336-25.6 42.496t13.824 46.080q17.92 19.968 46.080 20.992zM281.6 158.976v0q-14.848-0.512-23.040-9.728-6.144-7.68-5.12-20.992 2.048-22.528 30.72-23.552l-0.512-33.28q-20.48 0-37.888 11.264-23.552 14.848-25.6 43.008-2.048 27.648 13.824 45.568 17.92 19.968 46.080 20.992zM125.44 159.488v0q-14.336-1.024-22.528-10.24-6.656-7.168-5.12-20.992 1.536-22.528 30.72-23.040l-0.512-33.792q-20.992 0.512-38.4 11.264-23.040 14.848-25.088 43.008-2.56 28.16 13.312 46.080 17.92 19.968 46.592 20.992z" horiz-adv-x="505" />
<glyph unicode="&#xe04d;" d="M409.6 253.696q-10.24 0-34.816 9.216-32.256-19.968-102.4-48.64 33.792-11.776 88.576-35.84 25.088-13.824 25.088-22.528 0-10.24-21.504-14.848-14.336-3.584-28.672-3.584-22.528 0-53.76 5.632-55.296 9.728-121.856 33.28-62.976-14.848-103.424-14.848t-50.176 14.336q-6.144 9.728-6.144 18.944 0 17.92 21.504 32.256 18.944-17.92 54.784-17.92 7.168 0 15.36 0.512-1.536 12.288-4.096 30.72-8.704-1.024-15.872-1.024-24.576 0-36.352 10.752 14.848 21.504 28.16 26.624 9.728 4.096 56.32 10.752 28.672 53.248 36.864 66.048 23.040 36.864 36.864 38.912 24.576 0.512 24.576-47.616 0-20.48-4.608-49.664 59.904 10.24 110.080 17.408 13.824 35.328 31.232 73.728 0.512 0 3.584 1.024 7.68 1.536 22.016-1.024 1.024-31.744-5.12-72.704 8.704-8.192 8.704-27.648 38.4-16.384 38.4-26.112 0-6.144-13.312-6.144zM169.472 229.632q-0.512 7.68-5.888 13.312t-12.544 5.632q-18.432 0-17.92-18.432 0-18.432 17.92-18.432 7.68-0.512 13.056 4.864t5.376 13.056zM237.056 243.968q0 7.68-5.376 13.056t-13.056 5.376q-18.944 0-18.944-18.432 0-7.68 5.376-13.056t13.568-5.376q7.68 0 13.056 5.376t5.376 13.056z" horiz-adv-x="456" />
<glyph unicode="&#xe04e;" d="M301.568 372.48q-22.528 0-41.984-11.264-7.68 24.064-29.44 38.656t-47.872 14.592q-25.6 0-46.080-13.824t-28.16-36.352q-14.848 6.144-30.72 6.144-31.744 0-55.040-22.016t-23.296-53.248q0-26.112 16.896-46.592t43.52-26.624q-3.072-32.768 19.2-56.832t55.040-24.064q35.328 0 57.856 27.136 26.624-26.112 65.536-26.112 30.208 0 53.248 16.896t27.648 44.032q3.072 15.872-1.536 32.256 43.008 19.456 43.008 64.512 0 30.72-23.296 51.712t-54.528 20.992zM188.416 269.056l-1.024-1.024q-0.512 0.512-1.536 1.024-0.512 0 2.56 0zM114.176 273.152q-9.216 0-15.616 6.4t-6.4 15.616 6.4 15.616 15.616 6.4 15.616-6.4 6.4-15.616-6.4-15.616-15.616-6.4zM185.856 208.64q-31.232 0-46.592 29.184l23.552 12.288q8.192-15.36 23.040-15.36 16.384 0 23.552 12.8v0l23.040-12.288q-13.824-26.624-46.592-26.624zM259.584 274.688q-9.216 0-15.616 6.4t-6.4 15.616 6.4 15.616 15.616 6.4 15.616-6.4 6.4-15.616-6.4-15.616-15.616-6.4z" horiz-adv-x="399" />
<glyph unicode="&#xe04f;" d="M311.296 418.56q-3.072 0-7.68-0.512-10.24 22.528-35.328 37.888-26.624 16.896-55.296 16.896-24.064 0-41.472-14.336-12.8-9.728-27.136-31.232-19.968 10.752-43.008 10.752-33.792 0-57.6-20.224t-23.808-48.896 23.808-48.896 57.6-20.224q7.168 0 14.848 1.024 4.096-24.064 29.184-40.448t58.88-16.384q52.224 0 77.824 33.28 14.336-4.608 29.184-4.608 35.328 0 60.16 21.504t24.832 51.2q0 30.208-24.832 51.712t-60.16 21.504zM72.192 252.672l-25.088-38.4 25.6-16.896 25.088 38.4zM27.648 176.896l-25.088-38.4 26.112-16.896 25.088 38.4zM178.176 217.344l-25.088-38.4 26.112-16.896 25.088 38.4zM306.688 230.144l-25.088-38.912 25.6-16.384 25.088 38.4zM264.704 156.928l-25.088-38.4 25.6-16.896 25.088 38.912zM131.584 140.544l-25.088-38.912 26.112-16.384 25.088 38.4z" horiz-adv-x="418" />
<glyph unicode="&#xe050;" d="M210.944 305.92q-22.016 0-35.84 19.968-12.288 17.92-12.288 40.96t12.288 40.96q13.824 20.48 35.84 20.48 21.504 0 35.328-20.48 12.288-17.92 12.288-40.96 0-22.528-12.288-40.448-13.824-20.48-35.328-20.48zM85.504 257.792q-19.968 0-33.28 22.016-12.288 19.456-12.288 40.448 0 19.968 9.216 33.792 10.752 16.384 29.696 16.384 20.48 0 33.792-22.016 11.776-18.944 11.776-40.448 0-19.456-9.216-33.792-11.264-16.384-29.696-16.384zM334.848 259.328q-18.432 0-29.184 16.896-9.728 14.848-9.728 34.304 0 31.744 19.968 51.712 13.824 13.824 29.696 13.824 18.944 0 29.696-16.896 9.216-14.336 9.216-34.304 0-31.744-19.456-51.712-13.824-13.824-30.208-13.824zM271.872 236.288q43.52-23.552 43.52-64 0-36.352-35.328-58.88-30.72-19.456-69.12-19.456t-69.12 19.456q-35.84 22.528-35.84 58.88t37.376 60.416l-0.512 0.512q0 20.992 23.040 32.768 18.944 9.728 41.984 9.728 21.504 0 39.936-9.216 22.528-11.264 24.064-30.208z" />
<glyph unicode="&#xe051;" d="M510.464 180.48q-2.048-4.096-5.632-10.24l77.312-25.6-14.336-42.496-92.672 30.72q-67.584-62.464-178.176-62.464-112.64 0-179.712 64.512l-98.304-32.768-14.336 42.496 83.456 28.16q-3.072 5.632-4.096 7.68l-83.968 3.072 2.048 45.056 71.168-3.072v3.584q0 38.4 25.088 72.192-8.192 63.488-8.192 110.592 0 68.096 20.992 68.096 34.304 0 127.488-97.792 29.184 5.632 58.368 5.632 27.648 0 55.808-5.12 92.672 97.28 126.464 97.28 21.504 0 21.504-68.096 0-44.544-7.68-106.496 27.648-35.328 27.648-76.288v-3.072l64 2.56 2.048-45.056zM235.52 191.232l14.848 37.376-114.688 45.568-14.848-36.864zM346.112 225.024l14.336-37.376 85.504 32.768v2.56h7.168l22.528 8.704-14.336 37.376z" horiz-adv-x="616" />
<glyph unicode="&#xe052;" d="M6.144 242.944q7.168-24.576 52.736-28.16 39.424-1.024 50.176 63.488h-57.856v36.864h57.856v51.712q0 36.352 25.344 61.952t61.184 25.6 61.184-25.6 25.344-61.952v-119.296q6.656-28.672 37.376-35.84 4.096-1.024 9.216-1.024 31.744 0 51.2 29.184 4.096-10.752 4.096-20.48 0-33.792-42.496-53.76-18.944-6.656-40.448-6.656-42.496 0-73.728 27.136-2.048-26.624 14.848-40.96 25.088-17.408 43.52-17.408 6.144 0 10.752 2.048-12.288-20.992-50.176-20.992-19.968 0-41.472 5.632-61.952 19.968-61.952 60.928 0 7.68 2.56 15.36-29.184-30.72-70.144-30.72-14.848 0-27.136 4.096-47.616 18.944-47.616 54.784 0 11.264 5.632 24.064zM226.816 300.8q8.704 0 14.592 5.888t5.888 14.080q0 8.704-5.888 14.592t-14.592 5.888q-8.192 0-14.080-5.888t-5.888-14.592q0-8.192 5.888-14.080t14.080-5.888zM151.040 321.792q8.704 0 14.592 5.888t5.888 14.592q0 8.192-5.888 14.080t-14.592 5.888q-8.192 0-14.080-5.888t-5.888-14.080q0-8.704 5.888-14.592t14.080-5.888z" horiz-adv-x="400" />
<glyph unicode="&#xe053;" d="M376.32 70.4h-359.936q-10.24 0-16.384 16.384 0 16.896 16.384 16.896h359.936q10.24 0 16.384-16.896 0-16.384-16.384-16.384zM412.672 237.824q0-64-126.976-81.92l-13.312-28.16h-165.376l-81.408 191.488h341.504l-25.6-44.544q16.896 5.12 29.696 5.12 41.472 0 41.472-41.984zM380.928 243.456q-1.024 5.12-9.728 5.12-17.92 0-49.152-14.848l-20.48-43.52q87.552 17.408 79.36 53.248zM150.016 398.080q-14.336 13.824-14.336 33.792t14.080 34.048 34.048 14.080 34.048-14.080 14.080-34.048q0-17.92-11.52-31.232t-28.928-15.872l-6.656-38.912q-26.624 44.032-34.816 52.224z" horiz-adv-x="432" />
<glyph unicode="&#xe054;" d="M440.32 250.112q0-7.168 8.96-32t8.96-35.584q0-10.24-7.168-10.24-10.24 0-37.632 30.208t-35.584 30.208q-5.12 0-33.28-13.312-33.28-15.872-60.416-24.064-41.984-12.8-86.528-12.8-50.688 0-107.52 15.36-78.336 20.992-78.336 58.368 0 36.864 74.752 58.368 54.784 15.872 103.936 15.872 33.792 0 80.896-13.824 28.672-8.192 69.632-24.576 32.768-12.8 36.864-12.288 3.072 0.512 37.888 33.792 32.256 30.72 41.472 28.672 5.12-1.024 5.12-9.728 0-13.824-11.008-43.008t-11.008-39.424zM144.896 260.864q0 10.24-7.168 17.152t-17.408 6.912-17.408-6.912-7.168-17.152 7.168-17.408 17.408-7.168 17.408 7.168 7.168 17.408z" horiz-adv-x="482" />
<glyph unicode="&#xe055;" d="M1.024 184.064q0 29.184 27.648 49.152 29.696 20.992 78.336 18.944 45.056-2.56 79.872-46.080 3.584 18.944 19.968 33.536t35.328 14.592q-24.576 27.648-24.576 62.464 0 30.72 18.688 55.552t49.408 36.608l-10.752 33.792-46.592-29.696-16.896 26.624 64.512 40.448q6.656 4.608 13.824 1.536 7.168-2.56 9.216-10.24l17.408-55.296q7.168 0.512 12.8 0.512 8.192 0 18.432-1.536l15.872 53.248q2.56 7.168 9.728 10.24 7.168 2.56 13.824-1.536l68.608-43.52-16.896-26.624-51.2 32.256-9.728-32.256q28.672-12.288 46.080-36.608t17.408-53.504q0-40.96-32.768-70.144t-79.36-29.184q-15.36 0-30.208 3.584-1.536-9.216-4.608-18.432 34.816-28.16 67.072-29.184 32.768-0.512 60.416 27.648l22.528-22.016q-37.888-38.4-83.968-36.864-40.448 1.024-81.92 32.768-2.56-3.584-6.656-6.144l35.328-60.416-27.136-15.872-37.888 65.024q-5.632-1.024-10.752-1.024-26.624 0-38.4 18.432-8.192-9.728-20.48-20.48v-75.264h-31.232v53.76q-15.36-8.704-30.72-11.776l-38.4-49.152-24.576 19.456 21.504 27.648q-33.28 3.584-51.712 22.528-16.384 17.408-16.384 42.496zM404.992 345.856q0 9.216-6.656 15.872t-15.872 6.656q-9.728 0-16.384-6.656t-6.656-15.872q0-9.728 6.656-16.384t16.384-6.656q9.216 0 15.872 6.656t6.656 16.384zM343.552 265.984q6.656 0.512 12.288 3.072 12.288 6.144 15.36 20.992h-57.344q4.608-22.016 29.696-24.064zM279.040 318.72q9.216 0 15.872 6.656t6.656 16.384q0 9.216-6.656 15.872t-15.872 6.656q-9.728 0-16.384-6.656t-6.656-15.872q0-9.728 6.656-16.384t16.384-6.656z" horiz-adv-x="464" />
<glyph unicode="&#xe056;" d="M9.216 291.072q7.68-40.448 20.992-55.808-2.048-76.8 52.736-115.2 47.104-33.28 129.024-33.28 59.904 0 111.104 23.552 65.536 29.696 65.536 82.432 0 41.984-51.2 77.312 0.512 3.584 27.136 30.72 9.728-0.512 18.432-0.512 69.632 0 75.264 28.672-6.144 26.112-83.456 31.232-12.288 48.64-59.392 63.488-21.504 7.168-45.056 5.12-30.208-2.048-49.664-29.696-18.432-25.6-18.432-56.832 0-40.96 31.232-61.952l-164.864-12.8 1.536 2.56q-6.144-1.024-12.288-1.024-26.624 0-48.64 22.016zM287.744 329.984q-9.728 0-16.64 6.912t-6.912 16.64 6.912 16.896 16.64 7.168 16.64-7.168 6.912-16.896-6.912-16.64-16.64-6.912z" horiz-adv-x="467" />
<glyph unicode="&#xe057;" d="M77.824 191.744q-20.48 12.288-42.496 38.912t-27.648 46.592l52.224-16.896q72.704 27.136 120.832 38.4-40.448 28.672-40.448 76.288 0 36.864 26.112 64-23.552 4.096-34.816 13.312-12.8 10.24-13.824 26.112l29.184 1.536q0-3.072 3.072-5.12 14.336-11.776 65.536-8.192 11.264 2.56 22.016 2.56h1.536q39.936-0.512 67.84-27.904t27.904-66.304v-5.12q59.904-17.92 57.856-24.064t-69.12-15.36q-23.040-40.96-70.656-48.128 23.552-14.848 23.552-42.496 0-10.752-3.584-23.040-9.216-32.256-37.888-49.152-25.6-15.872-59.904-15.872-15.36 0-30.72 3.584l32.768-46.592 38.912-0.512v-29.184h-53.76l-50.176 71.68 14.336 9.728q-10.752 3.584-16.896 7.68-3.072 2.048-8.704 6.144l-39.936-62.976 19.968-20.48-20.48-20.48-36.864 36.864zM260.608 360.704q9.728 0 16.384 6.912t6.656 16.128q0 9.728-6.656 16.384t-16.384 6.656-16.384-6.656-6.656-16.384q0-9.216 6.656-16.128t16.384-6.912z" horiz-adv-x="404" />
<glyph unicode="&#xe058;" d="M209.92 468.224q4.096 11.776 10.24 11.776t10.24-12.288l29.696-88.576q4.096-12.288 16.128-21.248t24.832-8.96l95.744-1.536q14.848-0.512 14.848-7.68 0-5.632-8.704-12.288l-73.728-56.832q-17.408-13.312-17.408-37.376 0-6.144 1.536-11.264l26.624-89.088q1.536-5.12 1.536-8.704 0-8.192-6.144-8.192-4.608 0-11.776 5.632l-77.824 56.832q-10.24 7.68-25.088 7.68t-25.088-7.68l-77.824-56.832q-7.168-5.632-11.776-5.632-6.144 0-6.144 8.192 0 4.096 1.024 8.704l24.576 86.016q1.536 5.12 1.536 11.264 0 24.576-17.408 38.4l-72.192 58.368q-8.192 6.656-8.192 12.288 0 8.192 15.36 8.704l91.136 4.096q13.312 0.512 25.6 9.472t16.896 21.248zM77.312 436.992l38.4-44.032 24.576 22.016-38.4 43.52zM342.016 456.448l-33.28-48.128 26.624-18.944 33.792 48.128zM428.544 219.904l-56.32 14.848-8.192-32.256 56.32-14.848zM12.8 191.232l53.76 22.528-12.8 30.72-53.76-22.528zM239.616 70.4v54.784h-32.768v-54.784h32.768z" horiz-adv-x="450" />
<glyph unicode="&#xe059;" d="M326.144 398.080q-6.656 0-12.288-12.288v57.856h-107.008v36.352h-27.648v-36.352h-105.984v-61.952q-5.632 16.384-13.824 16.384t-13.824-16.128-5.632-39.168 5.632-39.168 13.824-16.128 13.824 16.384v-66.56h240.64v62.464q5.632-12.288 12.288-12.288 8.192 0 13.824 16.128t5.632 39.168-5.632 39.168-13.824 16.128zM128 327.936q-11.776 0-20.224 8.448t-8.448 20.224 8.448 20.224 20.224 8.448 20.224-8.448 8.448-20.224-8.448-20.224-20.224-8.448zM235.008 280.832h-80.384v23.040h80.384v-23.040zM257.536 327.936q-11.776 0-20.224 8.448t-8.448 20.224 8.448 20.224 20.224 8.448 20.224-8.448 8.448-20.224-8.448-20.224-20.224-8.448zM303.616 165.632q3.072-15.36 15.36-25.344t27.648-9.984q16.896 0 29.696 12.288l-32.768 15.872 6.144 26.624 40.448-12.288q1.024 18.432-12.032 32t-31.488 13.568q-26.112 0-38.4-23.552l-33.28 6.144v15.872h-158.208v-15.36l-34.304-6.144q-12.288 23.552-38.912 23.552-18.432 0-31.232-13.312t-12.288-31.744l40.448 12.288 6.144-26.624-32.768-15.872q12.8-12.288 29.696-12.288 15.36 0 27.392 9.728t15.616 24.576l30.208 5.632v-58.88h-10.24q-29.184 0-49.664-6.144t-20.48-14.848 20.48-14.848 49.664-6.144q28.672 0 49.152 6.144t20.48 14.848q0 0.512-0.512 1.024h46.080l-0.512-1.024q0-8.704 20.48-14.848t49.664-6.144q28.672 0 49.152 6.144t20.48 14.848-20.48 14.848-49.152 6.144q-7.68 0-16.384-0.512v58.88z" horiz-adv-x="410" />
<glyph unicode="&#xe05a;" d="M30.72 438.528q8.704 3.072 17.92 3.072 18.944 0 32.512-12.032t13.568-30.464q17.92 10.752 38.912 14.336-6.144 9.728-6.144 20.992 0 14.848 9.216 27.392t24.576 17.664q8.704 3.072 17.92 3.072 18.944 0 32.512-12.288t13.568-30.72q0-22.528-19.456-37.376 40.448-20.48 40.448-58.368 0-35.84-34.816-66.56 36.352 9.216 58.368 9.216 29.184 0 25.6-16.896-13.312-35.328-79.36-30.72 40.448-12.8 40.448-53.76 29.696 7.68 50.176 7.68 39.424 0 39.424-25.6 0-3.584-1.024-6.144-7.68-16.384-45.056-16.384-30.208 0-74.752 11.776 55.296-44.032 55.296-68.608 0-9.216-7.68-13.312-4.608-1.536-10.752-1.536-43.008 0-78.848 76.8-25.6 21.504-28.16 60.416 1.536-73.216-24.064-73.216-4.096 0-9.216 2.56-12.8 6.656-12.8 28.672 0 28.16 19.456 76.288-30.72-1.536-53.76 8.704-25.6 11.264-33.28 33.792-3.584 9.216-3.584 20.48 0 20.992 11.776 43.008-16.384-2.048-30.464 5.888t-19.2 22.784q-2.56 7.168-2.56 14.336 0 14.336 8.96 26.88t24.32 18.176zM188.416 337.152q7.168 0 12.544 5.12t5.376 12.8q0 7.168-5.376 12.288t-12.544 5.12-12.544-5.12-5.376-12.288q0-7.68 5.376-12.8t12.544-5.12zM89.088 299.776q7.168 0 12.288 5.12t5.12 12.8q0 7.168-5.12 12.288t-12.288 5.12q-7.68 0-12.8-5.12t-5.12-12.288q0-7.68 5.12-12.8t12.8-5.12z" horiz-adv-x="366" />
<glyph unicode="&#xe05b;" d="M45.056 194.816q-11.776-7.68-20.992-7.68-11.264 0-17.408 12.288-3.072 7.168-3.072 14.336 0 23.040 30.72 48.64-4.608 16.384-5.12 32.768-1.536 64 27.136 114.688 37.888 66.56 114.688 70.144 78.848 3.072 127.488-54.272 43.008-50.176 43.008-116.224 0-21.504-5.12-44.544 26.624-24.064 26.624-45.568 0-7.168-3.072-14.336-6.144-12.8-17.408-12.8-17.92 0-28.16 15.872-75.264-135.168-307.712-137.728 69.632 23.552 75.264 74.752 0 23.552-24.576 66.56-6.144-13.312-12.288-16.896zM258.56 365.824q10.24 0 17.408 7.168t7.168 17.408-7.168 17.664-17.408 7.424-17.408-7.424-7.168-17.664 7.168-17.408 17.408-7.168zM200.192 269.568q10.752 0.512 18.944 4.608 18.432 8.704 19.456 30.208h-81.408q0-32.256 43.008-34.816zM115.2 335.616q10.24 0 17.408 7.168t7.168 17.408-7.168 17.664-17.408 7.424-17.408-7.424-7.168-17.664 7.168-17.408 17.408-7.168z" horiz-adv-x="378" />
<glyph unicode="&#xe05c;" d="M179.712 338.688q-54.272 70.656-117.248 96.256-32.768 13.312-56.32 11.776l-2.048 29.184q27.136 2.048 66.56-13.312 75.264-29.184 136.192-111.616 7.168 85.504 68.096 85.504 5.12 0 9.728-0.512 54.784-6.144 78.336-88.576 15.36-53.76 15.872-129.024 0-14.336 2.56-43.008 4.608-54.272 16.896-109.056-193.024 30.208-294.912 94.72-45.056 28.16-60.416 75.264-5.632 16.384-5.632 31.232 0 23.552 14.336 41.984 25.6 33.28 84.992 33.28 19.968 0 43.008-4.096zM206.848 350.976q-1.024-11.264-0.512-17.92-12.8 3.072-26.624 5.632 26.112-34.304 48.64-77.824 62.976-121.344 88.576-146.432l20.48 21.504q-23.040 23.040-82.944 138.752-20.992 40.96-47.616 76.288z" horiz-adv-x="414" />
<glyph unicode="&#xe05d;" d="M354.304 95.488q10.752 10.24 23.552 17.92l3.584-10.24q2.56-7.68 2.56-13.824 0-9.216-4.352-13.568t-12.032-4.352-16.384 3.584l-9.728 3.072q5.632 10.24 12.8 17.408zM303.104 224l-222.72 222.208q7.168 2.56 24.576 5.632l229.376-229.376zM285.184 208.64l-6.656-31.232-32.256-7.168-228.352 228.352 39.936 36.864zM253.44 147.712l45.056 9.728 8.704 42.496 42.496-1.536 20.48-61.952q-17.92-9.728-32.256-24.064-11.264-11.264-18.944-27.136l-68.096 21.504zM230.4 152.832l-2.048-28.16-226.304 226.304q-1.536 9.216 4.096 25.6z" horiz-adv-x="397" />
<glyph unicode="&#xe05e;" d="M47.616 220.416q-20.992-19.968-34.304-48.128t-13.312-52.224q0-23.040 12.8-36.352t37.888-13.312q24.064 0 51.712 12.032t47.616 31.488q37.376 35.84 37.376 79.36 0 15.36-6.144 28.16 81.408 64 142.336 120.32 101.376 93.696 101.376 125.44 0 12.8-12.288 12.8-50.688 0-250.88-235.52-15.36 10.24-36.864 10.24-41.472 0-77.312-34.304z" horiz-adv-x="446" />
<glyph unicode="&#xe05f;" d="M561.664 303.36q37.376-64 37.376-111.616 0-54.784-47.616-76.288-26.112-11.776-50.176-11.776-50.688 0-85.504 48.128-10.752 14.848-15.872 28.16l12.288 4.608q-20.992-0.512-43.008-10.24 6.144-17.408 23.552-58.368l-39.424-16.896q-18.944 44.032-25.6 61.952-9.728-1.024-18.944-1.024-23.040 0-39.424 5.12-7.68-36.352-28.16-67.072l-35.84 24.064q17.408 26.112 22.528 57.344-19.968 5.632-36.864 6.656l11.264-2.56q-3.072-16.384-15.36-33.792-23.552-33.792-67.072-44.032-10.752-2.56-21.504-2.56-26.624 0-50.432 15.616t-35.584 40.192l38.912 18.944q15.872-31.232 47.104-31.232 7.168 0 11.776 1.024 34.304 7.68 47.104 36.864-35.328-3.584-42.496-3.584-13.824 0-32.256 5.12-24.576 6.144-24.576 16.384 0 7.68 25.088 25.088 31.232 20.992 38.912 33.28 9.728 15.872 29.696 47.104 22.016 32.768 52.224 52.224 39.424 25.088 90.624 25.088 41.984 0 80.384-29.696 21.504-16.384 57.856-58.88 31.744-37.376 48.64-45.568 49.664-25.088 49.664-40.448 0-8.192-11.264-17.408-15.36-12.288-73.216-9.216 22.016-36.864 54.784-36.864 15.36 0 32.256 7.68 22.528 10.24 22.528 36.864 0 36.352-33.792 93.696-6.144-0.512-4.096-0.512-25.6 0-43.776 17.92t-18.176 43.52 18.176 43.52 43.776 17.92 43.52-17.92 17.92-43.52q0-25.088-17.92-43.008zM518.144 327.936q7.68 0 12.8 5.376t5.12 13.056-5.12 13.056-12.8 5.376-13.056-5.376-5.376-13.056 5.376-13.056 13.056-5.376zM216.576 231.168q16.896 0 28.416 11.52t11.52 28.416q0 16.384-11.776 28.16t-28.16 11.776q-16.896 0-28.416-11.52t-11.52-28.416 11.52-28.416 28.416-11.52zM361.984 229.632q16.896 0 28.416 11.52t11.52 28.416q0 16.384-11.776 28.16t-28.16 11.776-28.16-11.776-11.776-28.16q0-16.896 11.52-28.416t28.416-11.52zM217.6 253.184q-14.848 0-14.848 14.848 0 15.36 14.848 15.36t14.848-15.36q0-14.848-14.848-14.848zM361.472 253.184q-14.848 0-14.848 14.848 0 15.36 14.848 15.36t14.848-15.36q0-14.848-14.848-14.848zM400.896 402.688l30.208 31.232 29.696-29.184-30.208-30.72zM473.6 450.816l40.96 12.8 10.752-35.328-41.472-12.8zM578.56 455.936l32.768-28.16-26.112-30.208-32.768 28.16z" horiz-adv-x="641" />
<glyph unicode="&#xe060;" d="M239.616 131.328l23.552 75.264 10.752 21.504h-37.376l-10.752 27.136-219.136 10.24q14.848 15.36 169.984 75.264 161.28 62.464 193.536 58.88 15.872-5.12 34.304-23.040 44.032-42.496 94.208-142.848l-15.872-27.136 15.872-26.624-15.872-21.504 2.56-25.088q75.776-5.632 122.112-17.664t46.336-26.368q0-19.968-82.176-34.304t-198.4-14.336q-116.736 0-198.912 14.336t-82.176 34.304q0 13.312 40.96 24.576 39.424 11.264 106.496 17.408zM353.28 130.304l32.768 16.896 32.256-17.408-6.144 36.352 26.112 25.088-35.84 5.632-16.384 32.768-16.384-32.768-35.84-5.12 26.112-25.6z" horiz-adv-x="661" />
<glyph unicode="&#xe061;" d="M199.68 276.224q-5.632 4.608-9.728 7.168-7.168 5.12-8.192 13.312-1.536 8.192 3.584 14.848l96.768 126.976q5.632 7.68 15.36 7.68 5.632 0 22.528-11.776l17.92 23.040 46.080-34.816-13.312-17.408q77.824-37.376 156.16-47.104 17.408-2.56 16.896-19.456 0-18.944-8.192-46.592-15.872-53.76-52.736-102.4t-83.456-78.848q-24.064-15.36-41.472-20.992-3.072-1.024-6.144-1.024-12.8 0-17.92 12.288-29.696 73.216-90.624 136.192l-182.784-240.128-46.080 34.816zM361.472 133.888q50.688 26.112 90.88 79.104t50.432 109.824q-36.864 6.656-74.24 18.432-1.024-22.016-10.752-35.84t-29.44-16.896-26.88-12.288-7.168-18.432q0-2.56 0.768-8.192t0.768-8.704q0-10.24-6.144-20.48-8.704-14.336-25.6-20.992 22.016-32.256 37.376-65.536z" horiz-adv-x="562" />
<glyph unicode="&#xe062;" d="M18.944 74.496l223.232 325.632q8.704 12.288 24.064 12.288 9.216 0 16.384-5.12 12.8-8.192 12.8-23.552 0-9.216-5.12-16.384l-14.336-20.992 11.776-32.768 38.4 2.048q14.336 0.512 15.36-13.824l2.048-31.232 30.72 0.512q10.24 0 13.824-9.216l10.24-27.136q3.584 1.536 7.168 2.56l10.24 41.984 20.992-37.376q12.8-0.512 24.064-5.632l36.352 21.504-11.264-37.888q10.24-10.24 15.872-23.552l37.376-9.728-30.72-18.944q0.512-11.776-3.072-23.552l24.064-31.232-37.376 5.632q-9.728-12.8-23.552-19.968l-5.632-39.424-22.016 30.208q-15.872-1.536-31.232 2.56l-30.208-22.016 5.12 35.328q-12.288 9.728-19.968 23.552l-36.864 5.12 28.16 22.016q-1.536 12.8 1.024 25.6l-22.528 25.6h32.768q3.584 5.12 7.168 9.216l-9.728 25.6-34.304-0.512q-13.824-0.512-14.848 13.312l-2.048 31.232-34.304-2.048q-10.752-0.512-14.848 9.216l-8.704 24.064-188.928-275.968q-8.704-12.288-23.552-12.288-9.216 0-16.384 5.12-12.8 8.704-12.8 24.064 0 8.704 5.12 16.384zM419.328 162.56q8.192 0 14.080 5.888t5.888 14.080-5.632 14.080-13.824 5.888-14.080-5.888-5.888-14.592q0-8.192 5.632-13.824t13.824-5.632z" horiz-adv-x="553" />
<glyph unicode="&#xe063;" d="M237.056 64.768q2.56 9.728-41.472 60.928l251.392 207.36 22.528 96.768-99.84-10.752-225.28-238.080q-48.128 47.616-58.368 45.568-10.24-1.536-38.4-8.192 20.48-12.8 40.448-35.84 6.656-7.68 10.24-22.528 4.608-16.896 12.288-28.16l-48.128-45.056q-16.896 2.048-29.44-9.472t-12.544-28.416q0-14.848 10.752-26.368t27.648-11.52q14.848 0 26.112 10.496t11.776 26.368l49.664 46.080q10.24-7.68 26.112-12.8 13.312-4.608 19.968-11.008t12.288-13.056q13.312-15.872 20.992-30.208 6.144 16.384 11.264 37.888zM48.128 39.68q-8.704 9.216 0.512 17.92t17.92-0.512q8.704-9.728-0.512-18.432t-17.92 1.024z" horiz-adv-x="497" />
<glyph unicode="&#xe064;" d="M391.68 289.536q1.024 7.68 1.024 14.336 0 61.952-70.144 74.752l-113.664 10.752q-51.2 1.024-78.336-19.968l-57.344-44.032q-40.448-19.456-41.984-100.352l1.024-95.744q1.024-67.584 59.904-81.92l126.976-17.408q13.312-1.536 25.088-1.536 51.2 0 79.872 26.624l38.4 42.496q29.696 20.992 29.184 100.864v91.136zM96.768 254.208q12.288-1.536 20.48-10.496t8.192-20.224-8.448-18.176-20.224-5.376-20.224 10.752-8.448 20.48 8.448 17.92 20.224 5.12zM99.328 77.568q-11.776 1.536-20.224 10.496t-8.448 20.224q0.512 11.264 8.704 18.176t20.48 5.376q11.776-1.536 19.968-10.752t8.192-20.48-8.448-17.92-20.224-5.12zM219.648 355.584q16.896 0 29.184-5.376t12.288-12.544-12.288-12.288-29.184-5.12q-17.408 0-29.44 5.12t-12.032 12.288 12.032 12.544 29.44 5.376zM162.304 128.768q-11.776 1.536-20.224 10.496t-8.448 20.224q0.512 11.264 8.704 18.176t20.48 5.376q11.776-1.536 19.968-10.752t8.192-20.48-8.448-17.92-20.224-5.12zM230.4 237.312q12.288-1.536 20.48-10.496t8.192-20.224-8.448-18.176-20.224-5.376-20.224 10.752-8.448 20.48 8.448 17.92 20.224 5.12zM233.472 60.672q-11.776 1.536-20.224 10.496t-8.448 20.224q0.512 11.264 8.704 18.176t20.48 5.376q11.776-1.536 19.968-10.752t8.192-20.48-8.448-18.176-20.224-4.864zM305.664 191.232q-9.728 0-9.728 34.816 0 34.304 9.728 34.304t9.728-34.304q0-34.816-9.728-34.816zM336.896 168.704q-8.704 0-8.704 30.72t8.704 30.72q9.216 0 9.216-30.72t-9.216-30.72zM367.104 142.592q-9.216 0-9.216 30.72t9.216 30.72q8.704 0 8.704-30.72t-8.704-30.72z" horiz-adv-x="426" />
<glyph unicode="&#xe065;" d="M290.816 332.032q8.192 4.096 21.504 15.872v75.264q0 11.776-34.048 19.968t-82.688 8.192q-48.128 0-82.432-8.192t-34.304-19.968v-73.216q4.608-8.192 22.528-18.432-43.52-27.648-38.912-63.488 4.608-50.176 0-215.040 2.56-37.888 69.12-53.248 27.648-6.656 66.048-7.68 36.864 1.536 62.976 8.192 62.976 15.872 63.488 56.32l2.56 214.528q3.584 35.328-35.84 60.928zM248.832 67.84q-23.040-4.096-52.224-5.12-14.848 0-57.344 6.144-33.28 5.12-33.28 35.328v120.32q0 30.72 38.4 30.208 24.064-0.512 52.224-1.024l47.104-0.512q38.912 0 38.912-31.232v-120.32q0-14.848-6.656-22.016-7.68-8.704-27.136-11.776zM261.12 179.968l-36.864 31.232-28.16-24.064-28.672 24.064-36.864-31.232 28.672-24.064-28.672-24.064 36.864-30.72 28.672 24.064 28.16-24.064 36.864 30.72-28.672 24.064z" horiz-adv-x="388" />
<glyph unicode="&#xe066;" d="M354.816 99.072q-8.192 3.072-17.408 3.072-25.6 0-50.688-20.992-16.896 11.264-48.128 17.408l7.68 69.12q23.040 1.024 35.328 19.456 5.632 8.192 5.632 17.92 0 8.704-5.888 18.944t-4.864 22.528q2.048 27.648-14.848 41.984-14.336 12.288-61.952 14.336 0.512 3.584 1.024 5.632 35.84 6.656 35.84 35.84 0 12.288-8.704 35.84-3.584 10.752-36.352 99.84l-38.912-65.536q-19.968-35.328-19.968-58.368 0-17.92 11.008-30.976t28.416-17.152q-0.512-2.56-0.512-4.608-47.616-1.536-62.464-13.312-18.432-14.336-18.432-37.376 0-13.312 7.168-23.040 7.68-11.264 20.48-11.264 3.072 0 6.144 1.024l7.68-120.32q-68.096-11.776-68.096-44.544 0-9.216 6.144-16.896 30.208-64.512 117.76-64.512 42.496 0 71.68 18.944 3.584-14.336 18.432-24.064 6.656-4.608 13.824-0.512t7.168 12.288q0 7.168-5.376 11.008t-6.4 6.912l1.024 1.024q1.536 1.536 23.552 4.096l19.456 2.56q54.784 13.824 55.296 53.248 0 30.72-31.744 40.448zM183.296 388.352q16.896-24.576 16.896-39.424t-15.872-16.896q-13.824-0.512-13.824 16.384 0 22.016 12.8 39.936zM119.296 246.528q-1.024 2.56-1.024 5.632 0.512 10.24 7.936 16.128t43.264 6.912v-11.264l27.648 1.536v9.728q38.4-1.536 46.592-8.192 5.632-4.096 5.632-12.288 0-2.56-0.512-7.68t-0.512-7.68q0-15.872 8.704-27.136 2.56-4.096 2.56-6.656 0-1.024-0.512-2.048-4.096-7.68-13.312-8.192-6.144 2.048-6.144 11.264v6.656q0.512 4.096 0.512 6.144 0 14.848-7.936 22.528t-22.784 6.656q-12.288-1.024-26.624-11.264-7.68-5.632-11.776-5.632-1.536 0-13.824 8.96t-23.552 8.96q-6.656 0-14.336-3.072zM183.808 33.536q-38.4 0-66.048 8.192-22.016 6.144-25.6 12.8 5.632 9.728 41.472 16.896l1.536-17.92q12.288-9.728 48.128-10.24 10.24 0 19.456 1.536 21.504 3.072 31.232 10.752l1.536 15.36q34.304-7.168 39.424-16.384-3.584-6.656-25.6-12.8-27.648-8.192-65.536-8.192zM324.608 32.512l-14.848-2.048-15.36-1.536q3.072 5.12 7.68 17.408h-0.512q1.536 4.608 1.536 8.192 0 1.024-0.512 4.096 17.92 15.872 34.816 15.872 22.016 0 21.504-15.872-0.512-17.92-34.304-26.112z" horiz-adv-x="406" />
<glyph unicode="&#xe067;" d="M47.104 422.144q10.24 5.12 19.968 5.12 16.384 0 35.84-15.872l30.72-29.696q11.776-10.752 52.224-57.6t52.48-56.32 75.52-66.304l4.608-57.344 9.728 51.712 24.064-21.504q0.512-18.432-1.024-57.344l24.064 24.064-7.68-29.696 26.624-3.072-14.336-21.504q38.912-21.504 78.336-32.768 16.384-3.584 32.768-6.656l-3.584-27.136q-17.92 3.072-35.84 6.656-40.448 10.24-77.824 29.696l-2.048-10.24-24.576 18.432-17.408-20.992-2.56 21.504-20.48-22.528-20.48 17.408 12.288 43.52h-0.512l-34.304-40.448q-11.264 7.168-22.528 16.384-26.624 22.528-49.664 48.64l18.944 32.256-33.28-23.040q-12.8 9.728-28.16 24.064-36.864 33.792-81.408 84.992l24.576 37.888-37.376-20.992q-9.728 18.944-17.408 49.664-8.704 33.792-8.704 60.928 0 38.912 18.432 48.128z" horiz-adv-x="516" />
<glyph unicode="&#xe068;" d="M457.728 81.152l-176.128 305.152q-12.8 22.528-31.232 22.528t-31.744-22.528l-176.128-305.152q-7.168-12.8-7.168-24.064 0-30.72 38.912-30.72h352.256q38.912 0 38.912 30.72 0 11.264-7.68 24.064zM251.904 310.528q26.624-3.072 26.624-44.032 0-39.936-27.648-109.056-26.624 67.584-26.624 107.008 0 43.008 27.648 46.080zM252.928 63.744q-11.776 0-20.224 8.448t-8.448 20.224q0 12.288 8.448 20.736t20.224 8.448 20.224-8.448 8.448-20.736q0-11.776-8.448-20.224t-20.224-8.448z" horiz-adv-x="505" />
<glyph unicode="&#xe069;" d="M65.536 221.952q-3.072 20.48-4.096 44.032-3.072 97.28 47.104 152.064 45.568 49.664 122.88 55.296 76.8 6.144 134.656-50.176 61.952-59.904 61.952-156.672 0-18.432-2.56-37.888 38.912-22.528 38.912-44.032 0-7.168-5.632-14.336-8.192-9.728-19.968-9.728-11.264 0-26.112 9.728 0-1.024-1.024-2.56-20.48-48.128-57.856-85.504-90.112-88.576-250.368-107.008 41.984 35.328 38.912 72.192-5.12 29.696-26.112 61.44-28.16 41.472-35.328 57.856-18.944-16.384-34.304-16.384-11.776 0-19.456 10.24-5.632 6.656-5.632 14.336 0 24.064 44.032 47.104zM175.616 348.928q-9.728 0-16.64-6.912t-6.912-16.64q0-10.24 6.912-17.152t16.64-6.912q10.24 0 17.152 6.912t6.912 17.152q0 9.728-6.912 16.64t-17.152 6.912zM340.48 381.184q-9.728 0-16.64-6.912t-6.912-16.64 6.912-16.64 16.64-6.912 16.64 6.912 6.912 16.64-6.912 16.64-16.64 6.912zM174.592 231.168l15.36 15.36 27.136-29.696 24.576 27.136 27.136-34.304 17.408 36.864 27.136-27.136 16.896 44.544 29.696-25.088 7.68 39.936 13.312-9.728q4.096 10.752 9.728 39.424-33.792-40.448-107.008-51.712-10.24-1.024-24.064-1.024-62.976 0-114.688 21.504 7.168-22.016 29.696-46.080z" horiz-adv-x="499" />
<glyph unicode="&#xe06a;" d="M35.328 438.016q9.728-6.656 19.968-28.16 25.6-51.2 51.2-169.472 81.92 12.8 158.208 14.336l2.048 2.048q46.592 120.32 60.416 119.808 11.264 0 38.4-67.584 11.776 1.536 22.016 1.536 9.728-0.512 21.504-2.048 29.184 66.56 40.448 66.56 13.824-0.512 54.784-119.296 19.968-26.624 19.968-57.344-1.024-38.912-31.232-68.096t-76.288-37.376q28.16-60.416 28.16-84.992 0-13.824-10.24-13.824-11.264 2.048-23.552 11.776-28.672 22.528-55.296 78.848h-20.992q-1.536-93.696-31.232-100.352-8.704 2.048-15.36 12.8-14.848 25.6-15.872 88.576l-90.624 4.608q7.168-35.84 7.168-59.904 0-36.864-14.336-41.472-7.168 1.536-14.336 11.264-18.432 22.528-37.888 81.92-4.096-89.6-35.328-89.6-3.072 0-5.12 1.024-20.992 16.384-20.992 109.056 0 48.64 6.656 114.176-39.424 145.92-39.424 198.144 0 23.040 7.168 23.040zM471.552 187.136q9.728 0 16.128 6.4t6.912 15.616q0 9.216-6.4 15.872t-15.616 6.656-15.872-6.4-6.656-15.616q-0.512-9.216 5.888-15.872t15.616-6.656zM399.872 134.4q10.752 0.512 18.944 3.072 19.456 7.168 24.064 23.552-11.264-8.192-21.504-8.192-12.8 0-20.992 11.264-9.216-11.776-22.528-11.776-10.24 0-20.992 8.192 2.56-24.576 43.008-26.112zM325.632 186.624q9.216 0 15.872 6.4t6.656 15.616q0.512 9.216-6.144 15.872t-15.872 6.656q-9.216 0.512-15.872-5.888t-6.656-16.128q0-9.216 6.4-15.872t15.616-6.656z" horiz-adv-x="541" />
<glyph unicode="&#xe06b;" d="M382.464 156.928q-10.24 0-17.408-7.424t-7.168-17.664q0-13.312 10.752-20.48l-3.072-22.528q-14.336 16.896-71.168 39.936 23.552 26.112 23.552 59.392 0 9.728-2.048 19.456 80.384 4.096 79.36 23.040-1.536 6.144-10.24 10.752-19.968 11.264-69.632 15.36l-87.552 228.864q-5.632 14.336-13.824 14.336t-14.336-15.36q-5.12-10.752-89.088-220.672-71.168-4.608-75.776-26.112 0.512-22.528 76.8-28.672-5.632-12.8-5.632-27.136 0-27.136 20.48-57.344-10.24-13.312-14.336-31.744-7.68-36.352-12.8-47.616-6.144-16.384-19.968-26.112-6.144-5.12-37.888-19.968-25.6-11.264-25.6-16.896 0-6.144 16.896-6.144 8.192 0 38.4 3.072t48.128 3.072q24.576 0 41.472-4.608 32.768-10.24 61.952-10.24 11.776 0 34.048 5.632t33.024 5.632q3.584 0 14.336-2.048 7.168-1.536 14.336 1.536 9.728 4.608 9.728 12.288 0 6.656-6.144 18.432-7.168 20.48-24.576 67.072 26.112-9.728 51.712-9.728 9.216 0 13.312 2.56l-13.312-95.232 15.872-2.56 26.624 137.728q15.872 6.144 15.872 23.040 0 10.24-7.424 17.664t-17.664 7.424zM159.232 165.12q-7.68 0-13.056 5.12t-5.376 12.8 5.376 12.8 13.056 5.12q7.168 0 12.544-5.12t5.376-12.8-5.376-12.8-12.544-5.12zM212.48 132.864q-19.968 6.144-18.944 14.848 18.432-5.12 39.936-1.536-1.024-14.336-20.992-13.312zM269.312 161.024q-7.168 0-12.544 5.12t-5.376 12.8q0 7.168 5.376 12.544t12.544 5.376q7.68 0 12.8-5.376t5.12-12.544q0-7.68-5.12-12.8t-12.8-5.12z" horiz-adv-x="446" />
<glyph unicode="&#xe06c;" d="M452.608 306.944q-25.088 140.8-62.976 151.552-11.264-2.56-24.064-14.848-29.696-30.72-59.904-106.496h-90.112q-38.912 112.64-77.824 121.344-11.264-3.072-22.016-18.944-26.624-37.888-47.104-132.608-37.888-53.76-37.888-134.656 0-18.432 2.048-33.28 10.752-68.608 71.168-107.264t154.112-38.656h5.632q94.72 0 154.368 38.4t70.912 107.52q2.048 14.848 2.048 33.792 0 80.384-38.4 134.144zM154.112 255.744q10.24-4.096 19.456-11.776 22.016-17.92 33.792-49.152-39.424 34.816-63.488 38.912-26.112 3.072-62.464-8.704 29.696 31.744 61.952 31.744 6.144 0 10.752-1.024zM76.288 185.088q13.312-14.848 48.128-30.208l0.512-38.4q-12.288 9.728-22.016 19.968-22.528 24.576-26.624 48.64zM255.488 82.176q-74.24 0-121.344 28.16l27.136 32.256q43.008-11.264 94.72-11.264 55.296 0 99.84 12.8l25.6-30.208q-48.128-31.744-125.952-31.744zM394.24 123.136l0.512 35.84q8.704 4.096 15.872 8.704 17.92 10.752 25.6 19.456-5.632-32.256-41.984-64zM374.784 231.168q-9.728-3.584-19.456-8.704-24.064-12.288-44.032-29.696 17.92 46.080 53.248 60.416 4.608 1.536 10.752 1.536 32.256 0 61.952-32.256-35.84 12.288-62.464 8.704z" horiz-adv-x="527" />
<glyph unicode="&#xe06d;" d="M452.608 306.944q-25.088 140.8-62.976 151.552-11.264-2.56-24.064-14.848-29.696-30.72-59.904-106.496h-90.112q-38.912 112.64-77.824 121.344-11.264-3.072-22.016-18.944-26.624-37.888-47.104-132.608-37.888-53.76-37.888-134.656 0-18.432 2.048-33.28 10.752-68.608 71.168-107.264t154.112-38.656h5.632q94.72 0 154.368 38.4t70.912 107.52q2.048 14.848 2.048 33.792 0 80.384-38.4 134.144zM154.112 255.744q10.24-4.096 19.456-11.776 22.016-17.92 33.792-49.152-39.424 34.816-63.488 38.912-26.112 3.072-62.464-8.704 29.696 31.744 61.952 31.744 6.144 0 10.752-1.024zM76.288 185.088q13.312-14.848 48.128-30.208l0.512-38.4q-12.288 9.728-22.016 19.968-22.528 24.576-26.624 48.64zM255.488 82.176q-74.24 0-121.344 28.16l27.136 32.256q43.008-11.264 94.72-11.264 55.296 0 99.84 12.8l25.6-30.208q-48.128-31.744-125.952-31.744zM394.24 123.136l0.512 35.84q8.704 4.096 15.872 8.704 17.92 10.752 25.6 19.456-5.632-32.256-41.984-64zM374.784 231.168q-9.728-3.584-19.456-8.704-24.064-12.288-44.032-29.696 17.92 46.080 53.248 60.416 4.608 1.536 10.752 1.536 32.256 0 61.952-32.256-35.84 12.288-62.464 8.704z" horiz-adv-x="527" />
<glyph unicode="&#xe06e;" d="M474.112 42.752l54.784 50.176-33.792 36.864-33.28-30.72-12.8 13.824 33.28 30.72-38.4 41.984-54.784-50.688-91.648 99.84q20.992 31.744 20.992 67.072 0 54.784-45.056 80.896-90.624 89.6-113.664 89.6-8.704 0-8.704-14.848 0-22.016 18.944-73.728-39.936-18.432-62.464-57.344-53.76 25.6-74.752 25.6-12.288 0-12.288-8.704 0-24.064 79.36-119.808 6.144-12.8 14.848-22.016 27.648-30.208 71.68-30.208 30.72 0 59.392 15.872l179.712-195.584q8.192-8.704 18.432-8.704 12.8 0 25.6 11.776l1.024 1.024q13.824 12.8 13.824 26.112 0 9.216-7.168 17.408zM200.704 262.4q-13.312 0-21.76 8.96t-8.448 20.736q0 13.312 9.216 21.76t20.992 8.448q13.312 0 21.504-9.216t8.192-20.992q0-13.312-8.96-21.504t-20.736-8.192z" horiz-adv-x="546" />
<glyph unicode="&#xe06f;" d="M41.984 230.656q25.6-38.4 74.24-38.4 30.208 0 59.904 16.896 10.24 6.656 17.408 10.752l185.344-194.56q8.192-8.192 18.432-8.192 12.288 0 25.6 12.288l0.512 0.512q14.336 13.312 14.336 26.624 0 9.216-7.68 16.896l-3.072 3.584 54.272 51.2-33.792 36.352-33.28-31.232-12.8 13.824 33.28 30.72-38.912 41.984-54.784-51.2-95.744 98.816q7.68 10.24 15.872 23.552 18.432 29.696 18.432 60.928 0 43.008-33.28 69.632-36.352 28.16-81.92 28.16-54.272 0-97.792-40.448-47.616-44.544-47.616-103.936 0-40.96 23.040-74.752zM188.416 290.048q8.192 0 14.848-4.096t7.168-10.24q0-6.656-5.888-12.8t-12.032-6.144-10.752 9.216q-4.096 7.68-4.096 14.336 0 9.728 10.752 9.728zM185.344 405.248q19.456 0 34.304-15.36 12.8-14.336 12.8-32.256 0-16.384-10.496-26.368t-24.832-9.984q-19.456 0-34.304 15.872-13.312 13.824-13.312 32.256 0 16.384 10.752 26.112t25.088 9.728zM75.776 316.672q10.24 9.216 24.576 9.216 19.456 0 33.28-14.848t13.824-32.768q0-16.384-10.496-26.368t-24.832-9.984q-19.456 0-34.304 15.872-13.312 13.824-13.312 32.256 0 15.872 11.264 26.624z" horiz-adv-x="494" />
<glyph unicode="&#xe070;" d="M388.608 186.112q1.536 5.632 37.376 15.872t35.84 17.408q0 6.144-34.816 15.36-36.352 9.728-37.376 15.36-1.536 5.632 13.056 24.064t14.592 24.064q0 7.168-13.824 7.168-4.608 0-16.128-1.28t-16.64-1.28q-13.312 0-13.312 9.728 0 7.68 6.4 31.488t6.912 32q3.072-1.024 6.144-1.024 9.216 0 16.128 6.656t6.912 16.384q0 9.216-6.912 16.128t-16.128 6.912q-9.728 0-16.384-6.912t-6.656-16.128q0-7.68 4.096-13.312-5.12-3.584-31.232-27.136-20.48-17.92-26.624-16.384-5.632 1.536-15.872 25.088t-17.408 23.552q-6.656 0-15.872-23.296t-14.848-24.32q-6.144-1.536-23.552 12.288-18.944 14.848-24.576 14.848-7.168 0-7.168-13.312 0-5.12 1.28-16.384t1.28-16.384q0-13.824-9.216-13.824-7.68 0-30.208 7.168t-29.696 7.168q-7.68 0-7.68-5.632 0-7.168 19.968-33.28t18.432-32.256q-2.048-6.144-25.344-16.128t-23.296-17.152q0-6.656 23.296-15.872t24.32-14.848q1.536-6.144-13.056-24.32t-14.592-23.808q0-7.168 13.824-7.168 4.608 0 16.128 1.28t16.64 1.28q13.824 0 13.824-10.24 0-7.168-5.888-28.928t-5.888-28.928q0-8.704 5.632-8.704 6.656 0 32.256 20.48 24.064 19.456 30.72 17.408 5.632-1.536 15.872-24.832t17.408-23.296q6.656 0 15.872 23.040t14.848 24.576q6.144 1.536 31.488-19.2t32-20.736q4.608 0 4.608 6.656 0 7.168-6.912 29.184t-6.912 28.672q0 8.192 9.216 8.192 7.168 0 26.88-4.608t26.88-4.608q9.728 0 9.728 5.632 0 7.168-18.688 30.464t-17.152 29.952zM453.632 124.16q-9.728 0-16.384-6.656t-6.656-16.384 6.656-16.64 16.384-6.912 16.64 6.912 6.912 16.64-6.912 16.384-16.64 6.656zM50.688 239.872q-12.288 0-21.248-8.96t-8.96-21.248 8.96-21.248 21.248-8.96q12.8 0 21.504 8.96t8.704 21.248-8.704 21.248-21.504 8.96z" horiz-adv-x="503" />
<glyph unicode="&#xe071;" d="M423.424 131.328l-24.064 75.264-10.752 21.504h37.888l10.24 27.136 219.648 10.24q-14.848 15.36-169.984 75.264-161.28 62.464-194.048 58.88-15.36-5.12-33.792-23.040-44.544-42.496-94.72-142.848l16.384-27.136-16.384-26.624 16.384-21.504-3.072-25.088q-75.264-5.632-121.856-17.664t-46.592-26.368q0-19.968 82.432-34.304t198.656-14.336 198.656 14.336 82.432 34.304q0 13.312-40.192 24.576t-107.264 17.408zM309.248 130.304l-32.256 16.896-32.256-17.408 6.144 36.352-26.624 25.088 36.352 5.632 15.872 32.768 16.384-32.768 36.352-5.12-26.112-25.6z" horiz-adv-x="661" />
<glyph unicode="&#xe072;" d="M364.544 276.224q6.144 4.608 10.24 7.168 6.656 5.12 8.192 13.312 1.024 8.192-3.584 14.848l-96.768 126.976q-6.144 7.68-15.36 7.68-5.632 0-23.040-11.776l-17.92 23.040-46.080-34.816 13.312-17.408q-77.312-37.376-156.16-47.104-16.896-2.56-16.896-19.456 0.512-18.944 8.704-46.592 15.36-53.76 52.224-102.4t83.456-78.848q24.064-15.36 41.472-20.992 3.072-1.024 6.144-1.024 12.8 0 17.92 12.288 29.696 73.216 91.136 136.192l182.272-240.128 46.080 34.816zM202.752 133.888q-50.176 26.112-90.624 79.104t-50.688 109.824q36.864 6.656 74.24 18.432 1.024-22.016 11.008-35.84t29.696-16.896 26.624-12.288 6.912-18.432q0-2.56-0.768-8.192t-0.768-8.704q0-10.24 6.144-20.48 8.704-14.336 26.112-20.992-22.528-32.256-37.888-65.536z" horiz-adv-x="562" />
</font>
</defs>
</svg>
