<?xml version="1.0" encoding="UTF-8" standalone="no"?>
<svg width="17px" height="15px" viewBox="0 0 17 15" version="1.1" xmlns="http://www.w3.org/2000/svg" xmlns:xlink="http://www.w3.org/1999/xlink" xmlns:sketch="http://www.bohemiancoding.com/sketch/ns">
    <!-- Generator: Sketch 3.0.3 (7892) - http://www.bohemiancoding.com/sketch -->
    <title>git</title>
    <desc>Created with Sketch.</desc>
    <defs></defs>
    <g id="Page-1" stroke="none" stroke-width="1" fill="none" fill-rule="evenodd" sketch:type="MSPage">
        <g id="git" sketch:type="MSLayerGroup" fill="#171515">
            <path d="M8.5,12.8553218 C8.182014,12.8553218 7.864027,12.6893168 7.534752,12.3572748 C7.405094,12.2265268 7.405094,12.0145178 7.534752,11.8837368 C7.66441,11.7530228 7.874652,11.7530228 8.004344,11.8837368 C8.206982,12.0881448 8.369113,12.1874868 8.5,12.1874868 C8.630854,12.1874868 8.793018,12.0881448 8.995689,11.8837698 C9.125381,11.7530558 9.335557,11.7530558 9.465281,11.8837698 C9.594939,12.0145178 9.594939,12.2265268 9.465281,12.3573078 C9.135973,12.6893168 8.817986,12.8553218 8.5,12.8553218 L8.5,12.8553218 L8.5,12.8553218 Z M0,7.72585677 C0,8.56110277 0.070822,9.31830177 0.2125,9.99731877 C0.354178,10.6763368 0.553396,11.2652878 0.810156,11.7640378 C1.066916,12.2627878 1.391576,12.6999308 1.784104,13.0755338 C2.176631,13.4511358 2.603092,13.7605778 3.06352,14.0039598 C3.523947,14.2473078 4.050748,14.4441828 4.643988,14.5943508 C5.237195,14.7445848 5.840762,14.8497518 6.454654,14.9098528 C7.068547,14.9699528 7.74443,14.9999868 8.48227,14.9999868 C9.220109,14.9999868 9.89742,14.9700198 10.514268,14.9099198 C11.131115,14.8498188 11.736176,14.7446518 12.32935,14.5944178 C12.92259,14.4441828 13.450918,14.2473748 13.914268,14.0040268 C14.377617,13.7606448 14.807066,13.4511358 15.202516,13.0756008 C15.598031,12.6999978 15.924186,12.2628548 16.180912,11.7641048 C16.437738,11.2653218 16.638451,10.6763708 16.783051,9.99738577 C16.92765,9.31836877 16.999967,8.56120277 16.999967,7.72595777 C16.999967,6.22964077 16.539506,4.94071177 15.618717,3.85907177 C15.671842,3.71483077 15.717562,3.54959577 15.755945,3.36330177 C15.794262,3.17700677 15.831184,2.91410477 15.866578,2.57459577 C15.902072,2.23505377 15.888758,1.84294377 15.826768,1.39830177 C15.764777,0.953591769 15.648234,0.499908769 15.477039,0.0372187686 L15.344227,0.0101317686 C15.255707,-0.00788123141 15.111107,-0.00188823141 14.910395,0.0282117686 C14.709748,0.0582457686 14.475068,0.112285769 14.206521,0.190432769 C13.937975,0.268513769 13.591168,0.423267769 13.166135,0.654629769 C12.741168,0.885957769 12.292561,1.17892677 11.820312,1.53346877 C11.017527,1.28707377 9.910801,1.02929477 8.5,1.02929477 C7.089266,1.02929477 5.979518,1.28703977 5.170889,1.53343577 C4.698641,1.17885977 4.248572,0.887430769 3.820617,0.659082769 C3.392629,0.430700769 3.050271,0.274472769 2.793512,0.190365769 C2.536719,0.106258769 2.29915,0.0521517686 2.08074,0.0281447686 C1.86233,0.00410476859 1.722113,-0.00342823141 1.660156,0.00561176859 C1.598199,0.0146187686 1.552445,0.0251317686 1.522928,0.0371517686 C1.351699,0.499874769 1.233662,0.953557769 1.168717,1.39826777 C1.103805,1.84291077 1.089029,2.23351377 1.124457,2.57000877 C1.159885,2.90653777 1.198234,3.17097977 1.239572,3.36323477 C1.28091,3.55552277 1.328125,3.72078977 1.38125,3.85900477 C0.460428,4.93461877 0,6.22354677 0,7.72585677 L0,7.72585677 L0,7.72585677 Z M2.266711,9.63286577 C2.266711,8.66151577 2.620855,7.78066777 3.329211,6.99018777 C3.541711,6.74901577 3.788178,6.56643777 4.068545,6.44255377 C4.348945,6.31863577 4.667662,6.24825677 5.024795,6.23151577 C5.381928,6.21477477 5.722791,6.21812277 6.047451,6.24156077 C6.372111,6.26503077 6.773504,6.29683977 7.251629,6.33701777 C7.729721,6.37726377 8.142934,6.39731877 8.491201,6.39731877 C8.839436,6.39731877 9.252682,6.37722977 9.73074,6.33701777 C10.208965,6.29683977 10.610324,6.26503077 10.934951,6.24156077 C11.259678,6.21812277 11.600508,6.21477477 11.957641,6.23151577 C12.314773,6.24828977 12.635018,6.31863577 12.91834,6.44255377 C13.201662,6.56643777 13.44959,6.74901577 13.66209,6.99018777 C14.370379,7.78066777 14.72459,8.66151577 14.72459,9.63286577 C14.72459,10.2022638 14.665588,10.7097188 14.547484,11.1551988 C14.429447,11.6007118 14.280365,11.9741048 14.100338,12.2755448 C13.920311,12.5770178 13.6679,12.8316498 13.34334,13.0392728 C13.018646,13.2469618 12.704313,13.4077438 12.400371,13.5215828 C12.096363,13.6354218 11.703803,13.7242168 11.222756,13.7878658 C10.741609,13.8514148 10.310766,13.8900198 9.929959,13.9033798 C9.549219,13.9167728 9.069666,13.9234688 8.491201,13.9234688 C7.912736,13.9234688 7.434611,13.9167388 7.056826,13.9033798 C6.679041,13.8900198 6.249625,13.8514148 5.768545,13.7878658 C5.287465,13.7242168 4.894937,13.6354558 4.59093,13.5215828 C4.286955,13.4077098 3.972621,13.2469618 3.647961,13.0392728 C3.323301,12.8316158 3.070957,12.5770178 2.89093,12.2755448 C2.710869,11.9741048 2.56182,11.6007118 2.443783,11.1551988 C2.325746,10.7097188 2.266711,10.2022638 2.266711,9.63286577 L2.266711,9.63286577 L2.266711,9.63286577 Z M4.25,9.10719677 C4.25,9.99479677 4.725697,10.7143398 5.3125,10.7143398 C5.899303,10.7143398 6.375,9.99479677 6.375,9.10719677 C6.375,8.53301977 6.172489,8.00245877 5.84375,7.71536977 C5.515011,7.42828177 5.109989,7.42828177 4.78125,7.71536977 C4.452511,8.00245877 4.25,8.53301977 4.25,9.10719677 L4.25,9.10719677 L4.25,9.10719677 Z M10.625,9.10719677 C10.625,9.99479677 11.100697,10.7143398 11.6875,10.7143398 C12.274303,10.7143398 12.75,9.99479677 12.75,9.10719677 C12.75,8.21959577 12.274303,7.50005377 11.6875,7.50005377 C11.100697,7.50005377 10.625,8.21959577 10.625,9.10719677 L10.625,9.10719677 L10.625,9.10719677 Z" sketch:type="MSShapeGroup"></path>
        </g>
    </g>
</svg>